<svg id="Layer_1" data-name="Layer 1" xmlns="http://www.w3.org/2000/svg" viewBox="0 0 124 124">
  <defs>
    <style>
      .cls-1 {
        opacity: 0.25;
      }

      .cls-2 {
        fill: #fff;
      }
    </style>
  </defs>
  <g>
    <g class="cls-1">
      <path class="cls-2" d="M52.62,122.63a76.78,76.78,0,0,1,70-70V1.37A127.83,127.83,0,0,0,1.37,122.63Z"/>
    </g>
    <path d="M52.62,124H1.37a1.38,1.38,0,0,1-1-.41,1.34,1.34,0,0,1-.36-1A129.13,129.13,0,0,1,122.56,0a1.35,1.35,0,0,1,1,.36,1.38,1.38,0,0,1,.41,1V52.62A1.32,1.32,0,0,1,122.74,54,75.44,75.44,0,0,0,54,122.74,1.34,1.34,0,0,1,52.62,124ZM2.79,121.29H51.4A78.14,78.14,0,0,1,121.29,51.4V2.79A126.45,126.45,0,0,0,2.79,121.29Z"/>
  </g>
</svg>
