<svg id="Layer_1" data-name="Layer 1" xmlns="http://www.w3.org/2000/svg" viewBox="0 0 284 284">
  <defs>
    <style>
      .cls-1 {
        fill: lime;
      }

      .cls-2 {
        opacity: 0.25;
      }

      .cls-3, .cls-6 {
        fill: #fff;
      }

      .cls-4 {
        opacity: 0.5;
      }

      .cls-5 {
        fill: none;
        stroke: lime;
        stroke-linecap: round;
        stroke-linejoin: round;
        stroke-width: 8px;
      }

      .cls-6 {
        stroke: #000;
        stroke-miterlimit: 10;
        stroke-width: 1.6px;
      }
    </style>
  </defs>
  <path class="cls-1" d="M142,69.78a1.33,1.33,0,0,1-1.33-1.34V1.57a1.34,1.34,0,1,1,2.67,0V68.44A1.34,1.34,0,0,1,142,69.78Z"/>
  <path class="cls-1" d="M142,283.77a1.33,1.33,0,0,1-1.33-1.34V215.56a1.34,1.34,0,1,1,2.67,0v66.87A1.34,1.34,0,0,1,142,283.77Z"/>
  <path class="cls-1" d="M68.44,143.34H1.56a1.34,1.34,0,0,1,0-2.68H68.44a1.34,1.34,0,0,1,0,2.68Z"/>
  <path class="cls-1" d="M282.42,143.34H215.55a1.34,1.34,0,0,1,0-2.68h66.87a1.34,1.34,0,0,1,0,2.68Z"/>
  <g>
    <g class="cls-2">
      <path class="cls-3" d="M135.6,218.39a76.76,76.76,0,0,1-70-70H14.35A127.81,127.81,0,0,0,135.6,269.64Z"/>
    </g>
    <path d="M135.6,271h-.06A129.17,129.17,0,0,1,13,148.46a1.37,1.37,0,0,1,.37-1,1.32,1.32,0,0,1,1-.42H65.6a1.35,1.35,0,0,1,1.33,1.23,75.44,75.44,0,0,0,68.78,68.78,1.34,1.34,0,0,1,1.23,1.33v51.25A1.33,1.33,0,0,1,135.6,271ZM15.76,149.73a126.49,126.49,0,0,0,118.51,118.5V219.62a78.14,78.14,0,0,1-69.89-69.89Z"/>
  </g>
  <g>
    <g class="cls-2">
      <path class="cls-3" d="M65.6,135.61a76.76,76.76,0,0,1,70-70V14.36A127.81,127.81,0,0,0,14.35,135.61Z"/>
    </g>
    <path d="M65.6,137H14.35a1.32,1.32,0,0,1-1-.42,1.37,1.37,0,0,1-.37-1A129.17,129.17,0,0,1,135.54,13a1.36,1.36,0,0,1,1,.37,1.35,1.35,0,0,1,.41,1V65.6a1.34,1.34,0,0,1-1.23,1.34,75.44,75.44,0,0,0-68.78,68.78A1.35,1.35,0,0,1,65.6,137Zm-49.84-2.68H64.38a78.14,78.14,0,0,1,69.89-69.89V15.77A126.49,126.49,0,0,0,15.76,134.27Z"/>
  </g>
  <g>
    <g class="cls-2">
      <path class="cls-3" d="M148.38,65.61a76.77,76.77,0,0,1,70,70h51.25A127.81,127.81,0,0,0,148.38,14.36Z"/>
    </g>
    <path d="M269.64,137H218.39a1.33,1.33,0,0,1-1.33-1.23,75.44,75.44,0,0,0-68.79-68.78,1.34,1.34,0,0,1-1.22-1.34V14.36a1.35,1.35,0,0,1,.41-1,1.39,1.39,0,0,1,1-.37A129.15,129.15,0,0,1,271,135.54a1.32,1.32,0,0,1-.36,1A1.35,1.35,0,0,1,269.64,137Zm-50-2.68h48.61a126.47,126.47,0,0,0-118.5-118.5V64.38a78.14,78.14,0,0,1,69.89,69.89Z"/>
  </g>
  <g>
    <g class="cls-2">
      <path class="cls-3" d="M264.73,172.53a126.54,126.54,0,0,1-115,95.7V219.62a78.17,78.17,0,0,0,64-47.09Z"/>
    </g>
    <path d="M267.48,172.53a129.21,129.21,0,0,1-119,98.45h-.07a1.35,1.35,0,0,1-1.34-1.34V218.39a1.35,1.35,0,0,1,1.23-1.33,75.44,75.44,0,0,0,62.56-44.53h2.92a78.17,78.17,0,0,1-64,47.09v48.61a126.54,126.54,0,0,0,115-95.7Z"/>
  </g>
  <g class="cls-4">
    <path class="cls-3" d="M121,140.25a21.06,21.06,0,0,1,19.2-19.2V107A35.07,35.07,0,0,0,107,140.25Z"/>
    <path class="cls-3" d="M143.75,121.05a21.06,21.06,0,0,1,19.2,19.2H177A35.05,35.05,0,0,0,143.75,107Z"/>
    <path class="cls-3" d="M163,143.75a21.06,21.06,0,0,1-19.2,19.2V177A35.05,35.05,0,0,0,177,143.75Z"/>
    <path class="cls-3" d="M140.24,163a21.06,21.06,0,0,1-19.2-19.2H107A35.07,35.07,0,0,0,140.24,177Z"/>
  </g>
  <line class="cls-5" x1="141.99" y1="78.8" x2="141.99" y2="97.27"/>
  <line class="cls-5" x1="141.99" y1="186.73" x2="141.99" y2="205.2"/>
  <line class="cls-5" x1="97.26" y1="142" x2="78.8" y2="142"/>
  <circle class="cls-6" cx="141.99" cy="142" r="16.31"/>
  <path d="M177.71,140.92H162.33l-.05-.62a20.29,20.29,0,0,0-18.59-18.59l-.61,0V106.29l.7,0a35.58,35.58,0,0,1,33.89,33.89Zm-14.16-1.34h12.74a34.23,34.23,0,0,0-31.87-31.88v12.74A21.6,21.6,0,0,1,163.55,139.58Z"/>
  <path d="M121.66,140.92H106.28l0-.71a35.56,35.56,0,0,1,33.89-33.89l.7,0v15.37l-.61,0a20.28,20.28,0,0,0-18.59,18.59Zm-14-1.34h12.74a21.61,21.61,0,0,1,19.14-19.14V107.7A34.23,34.23,0,0,0,107.69,139.58Z"/>
  <path d="M140.91,177.71l-.7,0a35.56,35.56,0,0,1-33.89-33.89l0-.71h15.38l0,.62a20.28,20.28,0,0,0,18.59,18.59l.61.05Zm-33.22-33.29a34.23,34.23,0,0,0,31.88,31.88V163.56a21.61,21.61,0,0,1-19.14-19.14Z"/>
  <path d="M143.08,177.71V162.34l.61-.05a20.29,20.29,0,0,0,18.59-18.59l.05-.62h15.38l0,.71a35.58,35.58,0,0,1-33.89,33.89Zm1.34-14.15V176.3a34.23,34.23,0,0,0,31.87-31.88H163.55A21.6,21.6,0,0,1,144.42,163.56Z"/>
  <g>
    <path d="M183.53,145.58a4.78,4.78,0,0,0,3.2,1.22h18.46a4.78,4.78,0,0,0,3.2-1.22v1.22H183.53v-1.22Z"/>
    <path d="M209.19,142a4,4,0,0,1-4,4H186.73a4,4,0,0,1-4-4v30.53h101V146H209.19v-4Zm-24.86,28.93V147.6h97.84v23.33Z"/>
  </g>
  <path class="cls-1" d="M209.19,142a4,4,0,0,1-4,4H186.73a4,4,0,0,1,0-8h18.46A4,4,0,0,1,209.19,142Z"/>
  <g class="cls-2">
    <rect x="185.13" y="148.4" width="96.24" height="21.73"/>
    <path d="M280.57,149.2v20.13H185.93V149.2h94.64m1.6-1.6H184.33v23.33h97.84V147.6Z"/>
  </g>
</svg>
