<svg id="Layer_1" data-name="Layer 1" xmlns="http://www.w3.org/2000/svg" viewBox="0 0 124 124">
  <defs>
    <style>
      .cls-1 {
        opacity: 0.25;
      }

      .cls-2 {
        fill: #fff;
      }
    </style>
  </defs>
  <g>
    <g class="cls-1">
      <path class="cls-2" d="M1.37,52.62a76.78,76.78,0,0,1,70,70h51.25A127.83,127.83,0,0,0,1.37,1.37Z"/>
    </g>
    <path d="M122.63,124H71.38A1.34,1.34,0,0,1,70,122.74a75.27,75.27,0,0,0-21.82-47A75.33,75.33,0,0,0,1.26,54,1.32,1.32,0,0,1,0,52.62V1.37A1.38,1.38,0,0,1,.45.4a1.34,1.34,0,0,1,1-.36A128.74,128.74,0,0,1,86.3,37.7,128.74,128.74,0,0,1,124,122.56a1.34,1.34,0,0,1-.36,1A1.38,1.38,0,0,1,122.63,124Zm-50-2.67h48.61a126.1,126.1,0,0,0-36.8-81.7A126.1,126.1,0,0,0,2.71,2.79V51.4a78,78,0,0,1,47.4,22.49A78,78,0,0,1,72.6,121.29Z"/>
  </g>
</svg>
