<svg id="Layer_1" data-name="Layer 1" xmlns="http://www.w3.org/2000/svg" viewBox="0 0 124 124">
  <defs>
    <style>
      .cls-1 {
        opacity: 0.25;
      }

      .cls-2 {
        fill: #fff;
      }
    </style>
  </defs>
  <g>
    <g class="cls-1">
      <path class="cls-2" d="M71.38,1.37a76.78,76.78,0,0,1-70,70v51.25A127.83,127.83,0,0,0,122.63,1.37Z"/>
    </g>
    <path d="M1.37,124a1.36,1.36,0,0,1-.92-.36,1.38,1.38,0,0,1-.41-1V71.38A1.34,1.34,0,0,1,1.26,70a75.27,75.27,0,0,0,47-21.82A75.27,75.27,0,0,0,70,1.26,1.34,1.34,0,0,1,71.38,0h51.25a1.38,1.38,0,0,1,1,.41,1.34,1.34,0,0,1,.36,1A128.74,128.74,0,0,1,86.3,86.3,128.74,128.74,0,0,1,1.44,124ZM2.71,72.6v48.61a126.1,126.1,0,0,0,81.7-36.8,126.1,126.1,0,0,0,36.8-81.7H72.6a78,78,0,0,1-22.49,47.4A78,78,0,0,1,2.71,72.6Z"/>
  </g>
</svg>
