<svg id="Layer_1" data-name="Layer 1" xmlns="http://www.w3.org/2000/svg" viewBox="0 0 124 124">
  <defs>
    <style>
      .cls-1 {
        opacity: 0.25;
      }

      .cls-2 {
        fill: #fff;
      }
    </style>
  </defs>
  <g>
    <g class="cls-1">
      <path class="cls-2" d="M122.63,71.38a76.78,76.78,0,0,1-70-70H1.37A127.83,127.83,0,0,0,122.63,122.63Z"/>
    </g>
    <path d="M122.63,124h-.07A128.74,128.74,0,0,1,37.7,86.3,128.74,128.74,0,0,1,0,1.44,1.34,1.34,0,0,1,.4.45a1.38,1.38,0,0,1,1-.41H52.62A1.34,1.34,0,0,1,54,1.26a75.27,75.27,0,0,0,21.82,47,75.27,75.27,0,0,0,47,21.82A1.34,1.34,0,0,1,124,71.38v51.25a1.38,1.38,0,0,1-.41,1A1.36,1.36,0,0,1,122.63,124ZM2.79,2.71a126.1,126.1,0,0,0,36.8,81.7,126.1,126.1,0,0,0,81.7,36.8V72.6a78,78,0,0,1-47.4-22.49A78,78,0,0,1,51.4,2.71Z"/>
  </g>
</svg>
