<?xml version="1.0" encoding="UTF-8"?>
<svg width="88px" height="74px" viewBox="0 0 88 74" version="1.1" xmlns="http://www.w3.org/2000/svg" xmlns:xlink="http://www.w3.org/1999/xlink">
    <title>bw-settings</title>
    <g id="Page-1" stroke="none" stroke-width="1" fill="none" fill-rule="evenodd">
        <g id="bw-settings" transform="translate(2.000000, 2.000000)">
            <rect id="Rectangle" stroke="#000000" stroke-width="4" fill="#FFFFFF" fill-rule="nonzero" x="0.83" y="0.52" width="82.23" height="69.32" rx="12"></rect>
            <g id="settings-button" transform="translate(14.000000, 8.000000)">
                <circle id="Oval" stroke="#000000" stroke-width="6.5" cx="28" cy="27" r="15.75"></circle>
                <g id="Group-2" transform="translate(27.956997, 26.967966) rotate(-240.000000) translate(-27.956997, -26.967966) translate(20.456997, -0.032034)" fill="#000000">
                    <g id="Group" transform="translate(1.122449, 0.000000)">
                        <polyline id="Path" points="12.743263 9.99059951 0.0967044803 9.1785921 1.18981148 0 6.77639669 0"></polyline>
                        <polyline id="Path" transform="translate(9.355065, 4.995300) scale(-1, 1) translate(-9.355065, -4.995300) " points="5.96686634 9.99059951 7.15667781 0 12.743263 0"></polyline>
                    </g>
                    <g id="Group" transform="translate(7.450437, 49.000000) rotate(-180.000000) translate(-7.450437, -49.000000) translate(0.950437, 44.000000)">
                        <polyline id="Path" points="-4.55741696e-15 9.99059951 1.18981148 0 6.77639669 0"></polyline>
                        <polyline id="Path" transform="translate(6.321185, 4.995300) scale(-1, 1) translate(-6.321185, -4.995300) " points="12.6423709 9.99059951 -9.11483393e-15 9.14342934 1.08891936 1.96414313e-13 6.67550457 1.96414313e-13"></polyline>
                    </g>
                </g>
                <g id="Group-2" transform="translate(29.000000, 27.000000) rotate(-180.000000) translate(-29.000000, -27.000000) translate(23.000000, 0.000000)" fill="#000000">
                    <g id="Group">
                        <polyline id="Path" points="11.9207433 9.99059951 0.0904626457 9.1785921 1.11301456 0 6.33901109 0"></polyline>
                        <polyline id="Path" transform="translate(8.751238, 4.995300) scale(-1, 1) translate(-8.751238, -4.995300) " points="5.58173224 9.99059951 6.69474679 0 11.9207433 0"></polyline>
                    </g>
                    <g id="Group" transform="translate(6.000000, 49.000000) rotate(-180.000000) translate(-6.000000, -49.000000) translate(0.000000, 44.000000)">
                        <polyline id="Path" points="-4.26325641e-15 9.99059951 1.11301456 0 6.33901109 0"></polyline>
                        <polyline id="Path" transform="translate(5.913182, 4.995300) scale(-1, 1) translate(-5.913182, -4.995300) " points="11.8263633 9.99059951 -8.52651283e-15 9.14342934 1.01863456 1.96414313e-13 6.24463109 1.96414313e-13"></polyline>
                    </g>
                </g>
                <g id="Group-2" transform="translate(27.956997, 27.032034) rotate(-120.000000) translate(-27.956997, -27.032034) translate(20.456997, 0.032034)" fill="#000000">
                    <g id="Group" transform="translate(1.122449, -0.000000)">
                        <polyline id="Path" points="12.743263 9.99059951 0.0967044803 9.1785921 1.18981148 0 6.77639669 0"></polyline>
                        <polyline id="Path" transform="translate(9.355065, 4.995300) scale(-1, 1) translate(-9.355065, -4.995300) " points="5.96686634 9.99059951 7.15667781 0 12.743263 0"></polyline>
                    </g>
                    <g id="Group" transform="translate(7.450437, 49.000000) rotate(-180.000000) translate(-7.450437, -49.000000) translate(0.950437, 44.000000)">
                        <polyline id="Path" points="-4.55741696e-15 9.99059951 1.18981148 0 6.77639669 0"></polyline>
                        <polyline id="Path" transform="translate(6.321185, 4.995300) scale(-1, 1) translate(-6.321185, -4.995300) " points="12.6423709 9.99059951 -9.11483393e-15 9.14342934 1.08891936 1.96414313e-13 6.67550457 1.96414313e-13"></polyline>
                    </g>
                </g>
            </g>
        </g>
    </g>
</svg>