<svg id="Layer_1" data-name="Layer 1" xmlns="http://www.w3.org/2000/svg" viewBox="0 0 27.2 27.2">
  <defs>
    <style>
      .cls-1 {
        fill: #010101;
      }

      .cls-2, .cls-3 {
        fill: none;
        stroke: #000;
        stroke-miterlimit: 10;
      }

      .cls-2 {
        stroke-width: 1.25px;
      }

      .cls-3 {
        stroke-width: 0.25px;
      }
    </style>
  </defs>
  <path class="cls-1" d="M21.3,1.5a4.44,4.44,0,0,1,4.4,4.4V21.2a4.44,4.44,0,0,1-4.4,4.4H5.9a4.44,4.44,0,0,1-4.4-4.4V5.9A4.44,4.44,0,0,1,5.9,1.5H21.3m0-1.5H5.9A6,6,0,0,0,0,5.9V21.2a5.91,5.91,0,0,0,5.9,5.9H21.2a5.91,5.91,0,0,0,5.9-5.9V5.9A5.76,5.76,0,0,0,21.3,0Z"/>
  <path d="M12,3.37l3.24,2.2a.28.28,0,0,1,0,.46L12,8.24A.24.24,0,0,1,11.61,8V3.6C11.61,3.39,11.81,3.26,12,3.37Z"/>
  <path class="cls-2" d="M12.41,5.73a7.84,7.84,0,0,0-2.1.62"/>
  <path class="cls-2" d="M17.7,6.77a8,8,0,0,1,3.81,5.68,7.91,7.91,0,0,1,0,2.38,8,8,0,0,1-5,6.25"/>
  <path class="cls-2" d="M9.47,20.49a8,8,0,0,1-3.78-5.66,7.91,7.91,0,0,1,0-2.38,8,8,0,0,1,4.62-6.1"/>
  <path class="cls-2" d="M16.53,21.08a7.7,7.7,0,0,1-1.74.47"/>
  <path class="cls-3" d="M5.69,12.45a7.91,7.91,0,0,0,0,2.38"/>
  <path d="M15.23,23.83,12,21.66a.28.28,0,0,1,0-.45L15.23,19a.23.23,0,0,1,.35.23v4.34A.23.23,0,0,1,15.23,23.83Z"/>
</svg>
