<svg id="Layer_1" data-name="Layer 1" xmlns="http://www.w3.org/2000/svg" viewBox="0 0 27.2 27.2">
  <defs>
    <style>
      .cls-1 {
        fill: #010101;
      }

      .cls-2 {
        fill: none;
        stroke: #000;
        stroke-miterlimit: 10;
        stroke-width: 2px;
      }
    </style>
  </defs>
  <path class="cls-1" d="M21.3,1.5a4.44,4.44,0,0,1,4.4,4.4V21.2a4.44,4.44,0,0,1-4.4,4.4H5.9a4.44,4.44,0,0,1-4.4-4.4V5.9A4.44,4.44,0,0,1,5.9,1.5H21.3m0-1.5H5.9A6,6,0,0,0,0,5.9V21.2a5.91,5.91,0,0,0,5.9,5.9H21.2a5.91,5.91,0,0,0,5.9-5.9V5.9A5.76,5.76,0,0,0,21.3,0Z"/>
  <g>
    <line class="cls-2" x1="20.6" y1="6.6" x2="16.1" y2="11.1"/>
    <line class="cls-2" x1="11.1" y1="16.1" x2="6.6" y2="20.6"/>
    <line class="cls-2" x1="20.6" y1="20.6" x2="16.1" y2="16.1"/>
    <line class="cls-2" x1="11.1" y1="11.1" x2="6.6" y2="6.6"/>
    <polygon points="5.1 11.1 5.1 5.1 11.1 5.1 5.1 11.1"/>
    <polygon points="16.1 5.1 22.1 5.1 22.1 11.1 16.1 5.1"/>
    <polygon points="22.1 16.1 22.1 22.1 16.1 22.1 22.1 16.1"/>
    <polygon points="11.1 22.1 5.1 22.1 5.1 16.1 11.1 22.1"/>
  </g>
</svg>
