<svg id="Layer_1" data-name="Layer 1" xmlns="http://www.w3.org/2000/svg" viewBox="0 0 27.2 27.2">
  <defs>
    <style>
      .cls-1 {
        fill: #010101;
      }

      .cls-2 {
        fill: none;
        stroke: #000;
        stroke-miterlimit: 10;
        stroke-width: 1.5px;
      }
    </style>
  </defs>
  <path class="cls-1" d="M21.3,1.5a4.44,4.44,0,0,1,4.4,4.4V21.2a4.44,4.44,0,0,1-4.4,4.4H5.9a4.44,4.44,0,0,1-4.4-4.4V5.9A4.44,4.44,0,0,1,5.9,1.5H21.3m0-1.5H5.9A6,6,0,0,0,0,5.9V21.2a5.91,5.91,0,0,0,5.9,5.9H21.2a5.91,5.91,0,0,0,5.9-5.9V5.9A5.76,5.76,0,0,0,21.3,0Z"/>
  <g>
    <g>
      <g>
        <line class="cls-2" x1="13.52" y1="13.6" x2="8.03" y2="13.6"/>
        <path d="M8.1,15.72,4.33,13.8a.22.22,0,0,1,0-.4L8.1,11.48a.28.28,0,0,1,.41.2v3.84A.28.28,0,0,1,8.1,15.72Z"/>
      </g>
      <g>
        <line class="cls-2" x1="11.1" y1="13.6" x2="19.17" y2="13.6"/>
        <path d="M19.1,11.48l3.77,1.92a.22.22,0,0,1,0,.4L19.1,15.72a.28.28,0,0,1-.41-.2V11.68A.28.28,0,0,1,19.1,11.48Z"/>
      </g>
    </g>
    <g>
      <g>
        <line class="cls-2" x1="13.6" y1="13.52" x2="13.6" y2="8.03"/>
        <path d="M11.48,8.1,13.4,4.33a.22.22,0,0,1,.4,0L15.72,8.1a.28.28,0,0,1-.2.41H11.68A.28.28,0,0,1,11.48,8.1Z"/>
      </g>
      <g>
        <line class="cls-2" x1="13.6" y1="13.68" x2="13.6" y2="19.17"/>
        <path d="M15.72,19.1,13.8,22.87a.22.22,0,0,1-.4,0L11.48,19.1a.28.28,0,0,1,.2-.41h3.84A.28.28,0,0,1,15.72,19.1Z"/>
      </g>
    </g>
  </g>
</svg>
