<?xml version="1.0" encoding="utf-8"?>
<!-- Generator: Adobe Illustrator 25.4.1, SVG Export Plug-In . SVG Version: 6.00 Build 0)  -->
<svg version="1.1" id="Layer_1" xmlns="http://www.w3.org/2000/svg" xmlns:xlink="http://www.w3.org/1999/xlink" x="0px" y="0px"
	 viewBox="0 0 27.2 27.2" style="enable-background:new 0 0 27.2 27.2;" xml:space="preserve">
<style type="text/css">
	.st0{fill:#010101;}
	.st1{fill:none;stroke:#000000;stroke-width:1.5;stroke-miterlimit:10;}
</style>
<g>
	<path class="st0" d="M21.3,1.5c2.4,0,4.4,2,4.4,4.4v15.3c0,2.4-2,4.4-4.4,4.4H5.9c-2.4,0-4.4-2-4.4-4.4V5.9c0-2.4,2-4.4,4.4-4.4
		H21.3 M21.3,0H5.9C2.7,0,0,2.7,0,5.9v15.3c0,3.3,2.7,5.9,5.9,5.9h15.3c3.3,0,5.9-2.7,5.9-5.9V5.9C27.2,2.7,24.6,0,21.3,0L21.3,0z"
		/>
</g>
<path class="st1" d="M24.2,15.9c0,2.4-1.9,4.3-4.3,4.3h-4.1h-8c-2.6,0-4.7-2.1-4.7-4.7c0-2.6,2.1-4.7,4.7-4.7
	c0.9-2.3,3.1-3.8,5.7-3.8c2.9,0,5.4,2,6,4.8c0.1,0,0.3,0,0.4,0C22.3,11.6,24.2,13.6,24.2,15.9z"/>
</svg>
