<?xml version="1.0" encoding="utf-8"?>
<!-- Generator: Adobe Illustrator 23.0.1, SVG Export Plug-In . SVG Version: 6.00 Build 0)  -->
<svg version="1.1" id="Layer_1" xmlns="http://www.w3.org/2000/svg" xmlns:xlink="http://www.w3.org/1999/xlink" x="0px" y="0px"
	 viewBox="0 0 27.2 27.2" style="enable-background:new 0 0 27.2 27.2;" xml:space="preserve">
<style type="text/css">
	.st0{fill:#010101;}
	.st1{fill:none;stroke:#010101;stroke-width:1.5;stroke-miterlimit:10;}
</style>
<g>
	<path class="st0" d="M21.3,1.5c2.4,0,4.4,2,4.4,4.4v15.3c0,2.4-2,4.4-4.4,4.4H5.9c-2.4,0-4.4-2-4.4-4.4V5.9c0-2.4,2-4.4,4.4-4.4
		H21.3 M21.3,0H5.9C2.7,0,0,2.7,0,5.9v15.3c0,3.3,2.7,5.9,5.9,5.9h15.3c3.3,0,5.9-2.7,5.9-5.9V5.9C27.2,2.7,24.6,0,21.3,0L21.3,0z"
		/>
</g>
<rect x="8.66" y="9.48" class="st1" width="9.69" height="7.08"/>
<line class="st1" x1="6.25" y1="18.79" x2="20.85" y2="18.79"/>
<polyline class="st1" points="13.35,9.48 18.35,9.48 18.35,14.48 "/>
<path class="st1" d="M16.61,6.22h2.44c1.41,0,2.56,1.15,2.56,2.56v2.44"/>
<polyline class="st1" points="8.66,14.48 8.66,9.48 13.66,9.48 "/>
<path class="st1" d="M5.36,11.19v-2.4c0-1.44,1.16-2.6,2.6-2.6h2.4"/>
</svg>
