<?xml version="1.0" encoding="utf-8"?>
<!-- Generator: Adobe Illustrator 24.1.2, SVG Export Plug-In . SVG Version: 6.00 Build 0)  -->
<svg version="1.1" id="Layer_1" xmlns="http://www.w3.org/2000/svg" xmlns:xlink="http://www.w3.org/1999/xlink" x="0px" y="0px"
	 viewBox="0 0 27.2 27.2" style="enable-background:new 0 0 27.2 27.2;" xml:space="preserve">
<style type="text/css">
	.st0{fill:#010101;}
</style>
<g>
	<path class="st0" d="M21.3,1.5c2.4,0,4.4,2,4.4,4.4v15.3c0,2.4-2,4.4-4.4,4.4H5.9c-2.4,0-4.4-2-4.4-4.4V5.9c0-2.4,2-4.4,4.4-4.4
		H21.3 M21.3,0H5.9C2.7,0,0,2.7,0,5.9v15.3c0,3.3,2.7,5.9,5.9,5.9h15.3c3.3,0,5.9-2.7,5.9-5.9V5.9C27.2,2.7,24.6,0,21.3,0L21.3,0z"
		/>
</g>
<path d="M18.3,17.7l1,0.6c-0.1,0.1-0.2,0.3-0.4,0.4c-0.5,0.5-1.2,0.9-2.1,1.3c-0.7,0.3-1.4,0.5-2.1,0.7v-7.5H18
	c0.4,0.6,1.2,0.8,1.8,0.4c0.6-0.4,0.8-1.2,0.4-1.8c-0.4-0.6-1.2-0.8-1.8-0.4c-0.2,0.1-0.3,0.3-0.4,0.4c0,0,0,0.1-0.1,0.1h-3.5V9.8
	c0,0,0.1,0,0.1-0.1c1.4-0.6,2-2.2,1.4-3.5c-0.6-1.4-2.2-2-3.5-1.4s-2,2.2-1.4,3.5c0.3,0.6,0.8,1.2,1.5,1.4c0,0,0.1,0,0.1,0v2H9.3
	l-0.1-0.1c-0.4-0.7-1.2-0.9-1.9-0.6c-0.7,0.4-0.9,1.2-0.6,1.9C7.1,13.8,8,14,8.7,13.7c0.2-0.1,0.4-0.3,0.6-0.6h3.3v7.5
	c-0.8-0.2-1.5-0.4-2.2-0.7c-0.9-0.4-1.7-0.8-2.2-1.3c-0.1-0.1-0.2-0.2-0.3-0.4l0.9-0.6l-3.5-2l0.3,4L6.6,19c0.2,0.2,0.4,0.5,0.6,0.7
	c0.6,0.6,1.5,1.2,2.6,1.6c1.8,0.8,3.6,1.1,3.7,1.1l0.1,0l0.1,0c0.1,0,1.9-0.2,3.7-1c1.1-0.4,2-1,2.6-1.6c0.2-0.2,0.4-0.5,0.6-0.7
	l1,0.5l0.2-4L18.3,17.7z M13.5,8.7c-0.8,0-1.4-0.6-1.4-1.4s0.6-1.4,1.4-1.4c0.8,0,1.4,0.6,1.4,1.4S14.3,8.7,13.5,8.7z"/>
</svg>
