<svg id="Layer_1" data-name="Layer 1" xmlns="http://www.w3.org/2000/svg" viewBox="0 0 27.2 27.2">
  <defs>
    <style>
      .cls-1 {
        fill: #010101;
      }

      .cls-2 {
        fill: #c4c6c8;
      }
    </style>
  </defs>
  <path class="cls-1" d="M21.3,1.5a4.44,4.44,0,0,1,4.4,4.4V21.2a4.44,4.44,0,0,1-4.4,4.4H5.9a4.44,4.44,0,0,1-4.4-4.4V5.9A4.44,4.44,0,0,1,5.9,1.5H21.3m0-1.5H5.9A6,6,0,0,0,0,5.9V21.2a5.91,5.91,0,0,0,5.9,5.9H21.2a5.91,5.91,0,0,0,5.9-5.9V5.9A5.76,5.76,0,0,0,21.3,0Z"/>
  <path class="cls-2" d="M18.3,17.7l1,.6c-.1.1-.2.3-.4.4A6.88,6.88,0,0,1,16.8,20a17.23,17.23,0,0,1-2.1.7V13.2H18a1.3,1.3,0,1,0,.4-1.8c-.2.1-.3.3-.4.4a.1.1,0,0,1-.1.1H14.4V9.8a.1.1,0,0,0,.1-.1,2.67,2.67,0,0,0-2.1-4.9A2.72,2.72,0,0,0,11,8.3a2.59,2.59,0,0,0,1.5,1.4h.1v2H9.3l-.1-.1A1.46,1.46,0,0,0,7.3,11a1.46,1.46,0,0,0-.6,1.9,1.49,1.49,0,0,0,2,.8,1.7,1.7,0,0,0,.6-.6h3.3v7.5a14.16,14.16,0,0,1-2.2-.7,7.52,7.52,0,0,1-2.2-1.3,1.38,1.38,0,0,1-.3-.4l.9-.6-3.5-2,.3,4,1-.6c.2.2.4.5.6.7a7.22,7.22,0,0,0,2.6,1.6,15.37,15.37,0,0,0,3.7,1.1h.2a13,13,0,0,0,3.7-1A7.22,7.22,0,0,0,20,19.8c.2-.2.4-.5.6-.7l1,.5.2-4Zm-4.8-9a1.4,1.4,0,1,1,1.4-1.4A1.37,1.37,0,0,1,13.5,8.7Z"/>
</svg>
