<svg id="Layer_1" data-name="Layer 1" xmlns="http://www.w3.org/2000/svg" viewBox="0 0 27.1 27.1">
  <defs>
    <style>
      .cls-1 {
        fill: #010101;
      }

      .cls-2 {
        fill: none;
        stroke: #010101;
        stroke-miterlimit: 10;
        stroke-width: 1.2px;
      }
    </style>
  </defs>
  <title>foundObjectFrame</title>
  <path class="cls-1" d="M21.3,1.5a4.44,4.44,0,0,1,4.4,4.4V21.2a4.44,4.44,0,0,1-4.4,4.4H5.9a4.44,4.44,0,0,1-4.4-4.4V5.9A4.44,4.44,0,0,1,5.9,1.5H21.3m0-1.5H5.9A6,6,0,0,0,0,5.9V21.2a5.91,5.91,0,0,0,5.9,5.9H21.2a5.91,5.91,0,0,0,5.9-5.9V5.9A5.76,5.76,0,0,0,21.3,0Z"/>
  <polyline class="cls-2" points="5.95 11.08 5.95 5.95 11.08 5.95"/>
  <polyline class="cls-2" points="11.08 21.25 5.95 21.25 5.95 16.12"/>
  <polyline class="cls-2" points="21.25 16.12 21.25 21.25 16.12 21.25"/>
  <polyline class="cls-2" points="16.12 5.95 21.25 5.95 21.25 11.08"/>
</svg>
