<svg id="Layer_1" data-name="Layer 1" xmlns="http://www.w3.org/2000/svg" viewBox="0 0 27 27">
  <title>grouping-icon</title>
  <path d="M21.83,1.5A3.68,3.68,0,0,1,25.5,5.17V21.83a3.68,3.68,0,0,1-3.67,3.67H5.17A3.68,3.68,0,0,1,1.5,21.83V5.17A3.68,3.68,0,0,1,5.17,1.5H21.83m0-1.5H5.17A5.19,5.19,0,0,0,0,5.17V21.83A5.19,5.19,0,0,0,5.17,27H21.83A5.19,5.19,0,0,0,27,21.83V5.17A5.19,5.19,0,0,0,21.83,0Z"/>
  <path d="M10.12,15.08a1.47,1.47,0,0,1,1.48,1.47v2.9a1.47,1.47,0,0,1-1.48,1.47H7.22a1.47,1.47,0,0,1-1.47-1.47v-2.9a1.47,1.47,0,0,1,1.47-1.47h2.9m0-1.25H7.22A2.72,2.72,0,0,0,4.5,16.55v2.9a2.72,2.72,0,0,0,2.72,2.72h2.9a2.73,2.73,0,0,0,2.73-2.72v-2.9a2.73,2.73,0,0,0-2.73-2.72Z"/>
  <path d="M19.45,15.25a1.47,1.47,0,0,1,1.48,1.47v2.54a1.48,1.48,0,0,1-1.48,1.48H16.91a1.47,1.47,0,0,1-1.47-1.48V16.72a1.47,1.47,0,0,1,1.47-1.47h2.54m0-1.25H16.91a2.73,2.73,0,0,0-2.72,2.72v2.54A2.74,2.74,0,0,0,16.91,22h2.54a2.74,2.74,0,0,0,2.73-2.73V16.72A2.73,2.73,0,0,0,19.45,14Z"/>
  <path d="M14.77,4.32a1.47,1.47,0,0,1,1.47,1.47V8.34a1.47,1.47,0,0,1-1.47,1.47H12.23a1.47,1.47,0,0,1-1.47-1.47V5.79a1.47,1.47,0,0,1,1.47-1.47h2.54m0-1.25H12.23A2.73,2.73,0,0,0,9.51,5.79V8.34a2.73,2.73,0,0,0,2.72,2.72h2.54a2.73,2.73,0,0,0,2.72-2.72V5.79a2.73,2.73,0,0,0-2.72-2.72Z"/>
  <path d="M21.78,12h-2v.75h2V12Zm-4,0h-2v.75h2V12Zm-4,0h-2v.75h2V12Zm-4,0h-2v.75h2V12Zm-4,0H4.94a2.51,2.51,0,0,0-1.09.36l.38.64a1.91,1.91,0,0,1,1-.27h.56V12ZM2.63,13.91a1.07,1.07,0,0,0-.07.27h0v0h0v1.17h.75V14.72a2,2,0,0,1,.09-.59l-.71-.22Zm.62,4H2.5v2h.75v-2Zm0,3.83-.73.17a2.63,2.63,0,0,0,.34.81h0l0,0H3l0,0H3v0H3.3l0,0h0l0,0h0l0,0h0a1.84,1.84,0,0,0,.22.17l.43-.62a2,2,0,0,1-.8-1.17Zm4.26,1.53h-2V24h2v-.75Zm4,0h-2V24h2v-.75Zm4,0h-2V24h2v-.75Zm4,0h-2V24h2v-.75ZM23,22.84a1.94,1.94,0,0,1-1.2.41h-.22V24h1.22a2.9,2.9,0,0,0,.66-.38L23,22.84Zm1.52-3.07h-.75v1.51a2.07,2.07,0,0,1,0,.35l.74.13,0-.26h0v0h0V19.77Zm0-4h-.75v2h.75v-2ZM23,12.31l-.35.67a2,2,0,0,1,.94,1.07l.7-.26a2.75,2.75,0,0,0-.77-1.12h0l0,0h-.16a2.2,2.2,0,0,0-.3-.19Z"/>
</svg>
