<svg id="Layer_1" data-name="Layer 1" xmlns="http://www.w3.org/2000/svg" viewBox="0 0 27.2 27.2">
  <defs>
    <style>
      .cls-1 {
        fill: #010101;
      }

      .cls-2 {
        fill: none;
        stroke: #231f20;
        stroke-miterlimit: 10;
      }

      .cls-3 {
        fill: #231f20;
      }
    </style>
  </defs>
  <title>localization-icon</title>
  <path class="cls-1" d="M21.3,1.5a4.44,4.44,0,0,1,4.4,4.4V21.2a4.44,4.44,0,0,1-4.4,4.4H5.9a4.44,4.44,0,0,1-4.4-4.4V5.9A4.44,4.44,0,0,1,5.9,1.5H21.3m0-1.5H5.9A6,6,0,0,0,0,5.9V21.2a5.91,5.91,0,0,0,5.9,5.9H21.2a5.91,5.91,0,0,0,5.9-5.9V5.9A5.76,5.76,0,0,0,21.3,0Z"/>
  <g>
    <g>
      <line class="cls-2" x1="13.34" y1="15.51" x2="13.58" y2="5.74"/>
      <polygon class="cls-3" points="14.9 7.36 13.57 5.97 12.18 7.3 12.21 6.15 13.6 4.82 14.92 6.21 14.9 7.36"/>
    </g>
    <g>
      <line class="cls-2" x1="13.34" y1="15.51" x2="21.77" y2="19.95"/>
      <polygon class="cls-3" points="19.73 20.41 21.56 19.84 20.99 18.01 22.01 18.54 22.58 20.38 20.75 20.94 19.73 20.41"/>
    </g>
    <g>
      <line class="cls-2" x1="13.34" y1="15.51" x2="5.42" y2="19.93"/>
      <polygon class="cls-3" points="6.15 17.97 5.63 19.82 7.47 20.34 6.47 20.9 4.62 20.38 5.14 18.53 6.15 17.97"/>
    </g>
  </g>
</svg>
