<svg id="Layer_1" data-name="Layer 1" xmlns="http://www.w3.org/2000/svg" viewBox="0 0 27.2 27.2">
  <defs>
    <style>
      .cls-1 {
        fill: #010101;
      }

      .cls-2 {
        fill: none;
        stroke: #010101;
        stroke-miterlimit: 10;
      }
    </style>
  </defs>
  <title>powerSave</title>
  <path class="cls-1" d="M21.3,1.5a4.44,4.44,0,0,1,4.4,4.4V21.2a4.44,4.44,0,0,1-4.4,4.4H5.9a4.44,4.44,0,0,1-4.4-4.4V5.9A4.44,4.44,0,0,1,5.9,1.5Zm0-1.5H5.9A6,6,0,0,0,0,5.9V21.2a5.91,5.91,0,0,0,5.9,5.9H21.2a5.91,5.91,0,0,0,5.9-5.9V5.9A5.76,5.76,0,0,0,21.3,0Z"/>
  <polygon class="cls-2" points="13.27 14.89 13.32 14.66 9.57 14.66 15.2 5.45 13.92 12.31 13.88 12.54 17.63 12.54 11.98 21.75 13.27 14.89"/>
</svg>
