<svg id="Layer_1" data-name="Layer 1" xmlns="http://www.w3.org/2000/svg" viewBox="0 0 27 27">
  <defs>
    <style>
      .cls-1 {
        fill: none;
        stroke: #000;
        stroke-miterlimit: 10;
        stroke-width: 1.5px;
      }
    </style>
  </defs>
  <title>realtime-icon-2</title>
  <path d="M21.83,1.5A3.68,3.68,0,0,1,25.5,5.17V21.83a3.68,3.68,0,0,1-3.67,3.67H5.17A3.68,3.68,0,0,1,1.5,21.83V5.17A3.68,3.68,0,0,1,5.17,1.5H21.83m0-1.5H5.17A5.19,5.19,0,0,0,0,5.17V21.83A5.19,5.19,0,0,0,5.17,27H21.83A5.19,5.19,0,0,0,27,21.83V5.17A5.19,5.19,0,0,0,21.83,0Z"/>
  <g>
    <g>
      <path class="cls-1" d="M6.1,6.72a10.73,10.73,0,0,1,0,14.47"/>
      <path class="cls-1" d="M3.39,9.61a6.46,6.46,0,0,1,0,8.69"/>
    </g>
    <g>
      <path class="cls-1" d="M20.9,20.81a10.73,10.73,0,0,1,0-14.47"/>
      <path class="cls-1" d="M23.61,17.91a6.45,6.45,0,0,1,0-8.68"/>
    </g>
  </g>
</svg>
