<?xml version="1.0" encoding="utf-8"?>
<!-- Generator: Adobe Illustrator 25.3.1, SVG Export Plug-In . SVG Version: 6.00 Build 0)  -->
<svg version="1.1" id="Layer_1" xmlns="http://www.w3.org/2000/svg" xmlns:xlink="http://www.w3.org/1999/xlink" x="0px" y="0px"
	 viewBox="0 0 283.5 283.5" style="enable-background:new 0 0 283.5 283.5;" xml:space="preserve">
<style type="text/css">
	.st0{opacity:0.25;}
	.st1{fill:#F2F2F2;}
	.st2{fill:#FF007D;}
	.st3{fill:#FFFFFF;}
</style>
<g class="st0">
	<circle class="st1" cx="141.7" cy="141.7" r="117.7"/>
</g>
<path class="st1" d="M141.7,24c65,0,117.7,52.7,117.7,117.7s-52.7,117.7-117.7,117.7S24,206.8,24,141.7l0,0
	C24,76.7,76.7,24,141.7,24C141.7,24,141.7,24,141.7,24 M141.7,10.9c-72.1,0-130.8,58.7-130.8,130.8s58.7,130.8,130.8,130.8
	c72.2-0.1,130.7-58.6,130.8-130.8C272.5,69.6,213.9,10.9,141.7,10.9L141.7,10.9z"/>
<circle class="st2" cx="141.7" cy="141.7" r="103.4"/>
<path class="st3" d="M108.5,176.7c-7.5,0-13.3-2.2-17.6-6.5c-4.3-4.3-6.5-10.3-6.5-18h12.5c0.1,3.9,1.2,7,3.4,9.2
	c2.1,2.3,5,3.5,8.8,3.5c3.7,0,6.5-1,8.3-2.9c1.8-1.9,2.8-4.6,2.8-8c0-6.1-3.8-9.1-11.4-9.1h-4.4v-11.8h3.5c6.9,0,10.4-2.9,10.4-8.8
	c0-2.5-0.8-4.6-2.3-6.3c-1.5-1.7-3.9-2.5-7-2.5c-6.8,0-10.4,4-10.7,11.9H85.7c0-7.5,2-13.4,6.1-17.5c4.1-4.1,9.7-6.2,16.9-6.2
	c6.9,0,12.3,1.8,16.2,5.5c3.9,3.7,5.9,8.4,5.9,13.9c0,6.4-2.7,11.5-8.2,15.3c3,1.2,5.5,3.3,7.5,6.4c2,3.1,2.9,6.5,2.9,10.3
	c0,6.8-2.1,12.1-6.4,15.9C122.3,174.8,116.3,176.7,108.5,176.7z"/>
<path class="st3" d="M173,175.2h-25.4v-70H173c8.7,0,15.6,2.1,20.5,6.3c4.9,4.2,7.4,10.2,7.4,17.8v21.8c0,7.6-2.5,13.5-7.4,17.8
	C188.6,173.1,181.8,175.2,173,175.2z M161.8,117.6v45.2H173c4.3,0,7.6-1.1,10-3.2c2.4-2.1,3.6-4.8,3.6-8.1v-22.6
	c0-3.3-1.2-6-3.6-8.1c-2.4-2.1-5.8-3.2-10-3.2H161.8z"/>
</svg>
