<?xml version="1.0" encoding="utf-8"?>
<!-- Generator: Adobe Illustrator 22.0.1, SVG Export Plug-In . SVG Version: 6.00 Build 0)  -->
<svg version="1.1" id="Layer_1" xmlns="http://www.w3.org/2000/svg" xmlns:xlink="http://www.w3.org/1999/xlink" x="0px" y="0px"
	 viewBox="0 0 27.2 27.2" style="enable-background:new 0 0 27.2 27.2;" xml:space="preserve">
<style type="text/css">
	.st0{fill:#010101;}
	.st1{fill:none;stroke:#010101;stroke-width:1.5;stroke-miterlimit:10;}
	.st2{fill:none;stroke:#010101;stroke-width:1.5;stroke-miterlimit:10;stroke-dasharray:1.8691,1.8691;}
</style>
<g>
	<g>
		<path class="st0" d="M21.3,1.5c2.4,0,4.4,2,4.4,4.4v15.3c0,2.4-2,4.4-4.4,4.4H5.9c-2.4,0-4.4-2-4.4-4.4V5.9c0-2.4,2-4.4,4.4-4.4
			H21.3 M21.3,0H5.9C2.7,0,0,2.7,0,5.9v15.3c0,3.3,2.7,5.9,5.9,5.9h15.3c3.3,0,5.9-2.7,5.9-5.9V5.9C27.2,2.7,24.6,0,21.3,0L21.3,0z"
			/>
	</g>
	<path class="st1" d="M6.2,13.5h5.5c1.2,0,1.9,0.7,1.9,1.6v5.7c0,0.8-0.6,1.4-1.4,1.4H6.3c-0.8,0-1.4-0.6-1.4-1.4v-5.7
		C4.9,14.3,5.6,13.5,6.2,13.5z"/>
	<g>
		<path class="st2" d="M6.3,4.9h14.5c0.8,0,1.5,0.7,1.5,1.5v14.5c0,0.8-0.7,1.5-1.5,1.5H6.3c-0.8,0-1.5-0.7-1.5-1.5V6.4
			C4.9,5.5,5.5,4.9,6.3,4.9z"/>
	</g>
</g>
</svg>
