<?xml version="1.0" encoding="utf-8"?>
<!-- Generator: Adobe Illustrator 23.0.1, SVG Export Plug-In . SVG Version: 6.00 Build 0)  -->
<svg version="1.1" id="Layer_1" xmlns="http://www.w3.org/2000/svg" xmlns:xlink="http://www.w3.org/1999/xlink" x="0px" y="0px"
	 viewBox="0 0 320 110" style="enable-background:new 0 0 320 110;" xml:space="preserve">
<style type="text/css">
	.st0{fill:#4C5A5A;}
	.st1{fill:none;}
</style>
<path class="st0" d="M24.2,51.2l-0.5-0.9l0.9-0.5l0.5,0.9L24.2,51.2z M27.9,49.1l-0.5-0.9l0.9-0.5l0.5,0.9L27.9,49.1z M31.5,47
	L31,46.1l0.9-0.5l0.5,0.9L31.5,47z M35.1,44.9L34.6,44l0.9-0.5l0.5,0.9L35.1,44.9z M38.8,42.8l-0.5-0.9l0.9-0.5l0.5,0.9L38.8,42.8z
	 M42.4,40.7l-0.5-0.9l0.9-0.5l0.5,0.9L42.4,40.7z M46,38.6l-0.5-0.9l0.9-0.5l0.5,0.9L46,38.6z M49.6,36.4l-0.5-0.9l0.9-0.5l0.5,0.9
	L49.6,36.4z M53.2,34.3l-0.5-0.9l0.9-0.5l0.5,0.9L53.2,34.3z"/>
<polygon class="st0" points="56.9,32.2 56.4,31.4 57.1,31 57.7,31.4 57.2,32.2 57.1,32.1 "/>
<path class="st0" d="M74.2,42l-0.8-0.5l0.5-0.9l0.8,0.5L74.2,42z M70.8,40L70,39.5l0.5-0.9l0.8,0.5L70.8,40z M67.4,38l-0.8-0.5
	l0.5-0.9l0.8,0.5L67.4,38z M64,36.1l-0.8-0.4l0.5-0.9l0.8,0.5L64,36.1z M60.6,34.1l-0.8-0.5l0.5-0.9l0.8,0.5L60.6,34.1z"/>
<polygon class="st0" points="77.3,43.9 77.1,43.6 76.8,43.4 76.9,43.2 76.8,43.1 77.1,42.9 77.2,42.6 78.4,43.2 "/>
<rect x="75.1" y="43.9" transform="matrix(0.8647 -0.5023 0.5023 0.8647 -12.1039 43.8866)" class="st0" width="0.5" height="1"/>
<polygon class="st0" points="73.4,46.2 72.7,45.8 73.2,44.9 73.4,45 73.6,44.9 74.1,45.8 "/>
<path class="st0" d="M70.2,44.4l-0.8-0.5l0.5-0.9l0.8,0.5L70.2,44.4z M67,42.5L66.2,42l0.5-0.9l0.8,0.5L67,42.5z M63.7,40.6
	l-0.8-0.5l0.5-0.9l0.8,0.5L63.7,40.6z M60.5,38.8l-0.8-0.5l0.5-0.9l0.8,0.5L60.5,38.8z"/>
<polygon class="st0" points="56.9,36.9 56.4,36 57.1,35.6 57.7,36 57.2,36.9 57.1,36.8 "/>
<path class="st0" d="M46.2,43.1l-0.5-0.9l0.9-0.5l0.5,0.9L46.2,43.1z M49.8,41l-0.5-0.9l0.9-0.5l0.5,0.9L49.8,41z M53.3,39l-0.5-0.9
	l0.9-0.5l0.5,0.9L53.3,39z"/>
<polygon class="st0" points="43,45.1 41.9,44.4 43,43.7 43.2,44.1 43.5,44.2 43.4,44.4 43.5,44.6 43.2,44.8 "/>
<path class="st0" d="M71.9,61.8L71,61.3l0.5-0.9l0.9,0.5L71.9,61.8z M68.3,59.7l-0.9-0.5l0.5-0.9l0.9,0.5L68.3,59.7z M64.7,57.6
	l-0.9-0.5l0.5-0.9l0.9,0.5L64.7,57.6z M61.1,55.5L60.2,55l0.5-0.9l0.9,0.5L61.1,55.5z M57.5,53.5l-0.9-0.5l0.5-0.9l0.9,0.5
	L57.5,53.5z M53.9,51.4L53,50.8l0.5-0.9l0.9,0.5L53.9,51.4z M50.2,49.3l-0.9-0.5l0.5-0.9l0.9,0.5L50.2,49.3z M46.6,47.2l-0.9-0.5
	l0.5-0.9l0.9,0.5L46.6,47.2z"/>
<polygon class="st0" points="75.3,63.8 74.6,63.4 75.1,62.5 75.3,62.6 75.5,62.5 76,63.4 "/>
<path class="st0" d="M78.7,61.8l-0.5-0.9l0.9-0.5l0.5,0.9L78.7,61.8z M82.3,59.7l-0.5-0.9l0.9-0.5l0.5,0.9L82.3,59.7z M85.9,57.6
	l-0.5-0.9l0.9-0.5l0.5,0.9L85.9,57.6z M89.5,55.5L89,54.6l0.9-0.5l0.5,0.9L89.5,55.5z"/>
<path class="st0" d="M60.5,77L60,76.2l0.9-0.5l0.5,0.9L60.5,77z M64.1,74.9l-0.5-0.9l0.9-0.5l0.5,0.9L64.1,74.9z M67.7,72.8L67.2,72
	l0.9-0.5l0.5,0.9L67.7,72.8z M71.3,70.7l-0.5-0.9l0.9-0.5l0.5,0.9L71.3,70.7z M75,68.6l-0.5-0.9l0.9-0.5l0.5,0.9L75,68.6z
	 M78.6,66.5l-0.5-0.9l0.9-0.5l0.5,0.9L78.6,66.5z M82.2,64.4l-0.5-0.9l0.9-0.5l0.5,0.9L82.2,64.4z M85.8,62.3l-0.5-0.9l0.9-0.5
	l0.5,0.9L85.8,62.3z M89.5,60.2L89,59.3l0.9-0.5l0.5,0.9L89.5,60.2z"/>
<polygon class="st0" points="57.1,79 56.4,78.6 56.9,77.8 57.1,77.9 57.2,77.8 57.7,78.6 "/>
<path class="st0" d="M53.8,77.2L53,76.7l0.5-0.9l0.8,0.5L53.8,77.2z M50.4,75.2l-0.8-0.5l0.5-0.9l0.8,0.5L50.4,75.2z M47.1,73.2
	l-0.8-0.4l0.5-0.9l0.8,0.5L47.1,73.2z M43.7,71.2l-0.8-0.5l0.5-0.9l0.8,0.5L43.7,71.2z M40.2,69.4l-0.8-0.5l0.5-0.9l0.8,0.5
	L40.2,69.4z"/>
<polygon class="st0" points="36.9,67.4 35.7,66.8 36.9,66.1 37.1,66.4 37.4,66.6 37.3,66.8 37.4,66.9 37.1,67.1 "/>
<rect x="38.5" y="65.1" transform="matrix(0.865 -0.5018 0.5018 0.865 -27.6785 28.2818)" class="st0" width="0.5" height="1"/>
<polygon class="st0" points="40.6,65.1 40.1,64.2 40.7,63.8 41.4,64.2 40.9,65.1 40.7,65 "/>
<path class="st0" d="M53.9,72.6l-0.8-0.5l0.5-0.9l0.8,0.5L53.9,72.6z M50.7,70.7l-0.8-0.5l0.5-0.9l0.8,0.5L50.7,70.7z M47.4,68.8
	l-0.8-0.5l0.5-0.9l0.8,0.5L47.4,68.8z M44.2,67l-0.8-0.5l0.5-0.9l0.8,0.5L44.2,67z"/>
<polygon class="st0" points="57.1,74.4 56.4,74 56.9,73.1 57.1,73.2 57.2,73.1 57.7,74 "/>
<path class="st0" d="M60.4,72.4l-0.5-0.9l0.9-0.5l0.5,0.9L60.4,72.4z M64,70.4l-0.5-0.9l0.9-0.5l0.5,0.9L64,70.4z M67.5,68.3
	L67,67.4l0.9-0.5l0.5,0.9L67.5,68.3z"/>
<polygon class="st0" points="71.1,66.3 70.9,65.9 70.6,65.8 70.7,65.6 70.6,65.4 70.9,65.2 71.1,64.9 72.3,65.6 "/>
<path class="st0" d="M67.9,64.2L67,63.7l0.5-0.9l0.9,0.5L67.9,64.2z M64.2,62.1l-0.9-0.5l0.5-0.9l0.9,0.5L64.2,62.1z M60.7,60
	l-0.9-0.5l0.5-0.9l0.9,0.5L60.7,60z M57,57.9l-0.9-0.5l0.5-0.9l0.9,0.5L57,57.9z M53.4,55.8l-0.9-0.5l0.5-0.9l0.9,0.5L53.4,55.8z
	 M49.8,53.7l-0.9-0.5l0.5-0.9l0.9,0.5L49.8,53.7z M46.2,51.7l-0.9-0.5l0.5-0.9l0.9,0.5L46.2,51.7z M42.6,49.6L41.7,49l0.5-0.9
	l0.9,0.5L42.6,49.6z"/>
<polygon class="st0" points="38.6,47.5 38.1,46.6 38.8,46.2 39.5,46.6 39,47.5 38.8,47.4 "/>
<path class="st0" d="M24.2,55.9l-0.5-0.9l0.9-0.5l0.5,0.9L24.2,55.9z M27.8,53.8L27.3,53l0.9-0.5l0.5,0.9L27.8,53.8z M31.4,51.7
	l-0.5-0.9l0.9-0.5l0.5,0.9L31.4,51.7z M35,49.6l-0.5-0.9l0.9-0.5l0.5,0.9L35,49.6z"/>
<path class="st0" d="M134.1,46.5c-2.4,0.1-4.7-1-6-3v8h-2.1V30.9h2.2v2.6c1.4-2,3.6-3.1,6-3c4.4,0,8,3.6,8,8S138.6,46.5,134.1,46.5
	L134.1,46.5z M134.1,32.4c-3.4,0-6.1,2.7-6.1,6.1c0,3.4,2.7,6.1,6.1,6.1c3.4,0,6.1-2.7,6.1-6.1C140.3,35.1,137.5,32.4,134.1,32.4z"
	/>
<path class="st0" d="M152.9,32.7v13.4h-2.1V32.7h-3.3v-1.9h3.3v-5.4h2.1v5.4h3.4v1.9H152.9z"/>
<path class="st0" d="M170.7,46.5c-4.4,0-8-3.6-7.9-8.1c0-4.4,3.6-8,8.1-7.9c3.2,0,6.1,2,7.4,5h-2.3c-1.1-1.9-3.1-3.1-5.3-3.1
	c-3.3,0-6,2.6-6.1,5.9c0,0.1,0,0.1,0,0.2c0,3.4,2.7,6.1,6.1,6.1c0,0,0.1,0,0.1,0c2.1,0,3.6-0.8,5.2-3h2.4
	C176.4,45.2,173.9,46.5,170.7,46.5z"/>
<path class="st0" d="M128.2,70.8v8.9h-2.1V64.5h2.1v2.2c0.8-1.7,2.1-2.4,4.3-2.5v2C129.7,66.4,128.2,68,128.2,70.8z"/>
<path class="st0" d="M139.7,72.8c0.3,3.1,2.9,5.5,6,5.4c2.3,0,4.4-1.4,5.4-3.5h2.2c-1.1,3.2-4.1,5.3-7.4,5.4c-4.4,0-8-3.5-8.1-7.9
	c0-0.1,0-0.1,0-0.2c-0.1-4.4,3.4-7.9,7.8-8c0.1,0,0.1,0,0.2,0c4.5,0,8,3.3,8,8.7L139.7,72.8z M145.5,66c-2.9,0-5.4,2.1-5.8,4.9h11.7
	C151,68,148.4,66,145.5,66L145.5,66z"/>
<path class="st0" d="M174.4,79.8v-2.7c-1.3,2-3.5,3.1-5.9,3c-4.4,0-8-3.5-8.1-7.9c0-4.4,3.5-8,7.9-8.1c2.4-0.1,4.7,1.1,6,3.1v-2.7
	h2.1v15.3H174.4z M168.4,66c-3.3,0-6,2.7-6,6c-0.1,3.4,2.6,6.1,5.9,6.2c0.1,0,0.1,0,0.2,0c3.4-0.2,5.9-3.1,5.7-6.5
	C174,68.6,171.5,66.1,168.4,66L168.4,66z"/>
<path class="st0" d="M184.5,79.8V59.1h2.1v20.7H184.5z"/>
<path class="st0" d="M194.6,62.8v-3.5h2.1v3.5H194.6z M194.6,79.8V64.5h2.1v15.3H194.6z"/>
<path class="st0" d="M208.6,66.3v13.4h-2.1V66.3h-3.3v-1.9h3.3v-5.4h2.1v5.4h3.4v1.9H208.6z"/>
<path class="st0" d="M222.7,85.1h-2.2l2.5-5.9l-5.9-14.8h2.3l4.9,12.2l5.2-12.2h2.2L222.7,85.1z"/>
<path class="st0" d="M250.3,79.8V59.1h2.1v20.7H250.3z"/>
<path class="st0" d="M273.9,79.8v-2.7c-1.3,2-3.5,3.1-5.9,3c-4.4,0-8-3.5-8.1-7.9c0-4.4,3.5-8,7.9-8.1c2.4-0.1,4.7,1,6,3.1v-2.7h2.1
	v15.3H273.9z M267.9,66c-3.3,0-6,2.7-6,6c-0.1,3.4,2.6,6.1,5.9,6.2c0.1,0,0.1,0,0.2,0c3.4-0.2,5.9-3.1,5.7-6.5
	C273.6,68.6,271.1,66.1,267.9,66L267.9,66z"/>
<path class="st0" d="M292.1,80.1c-2.4,0.1-4.6-1-6-3v2.6H284V59.1h2.1v8c1.4-2,3.6-3.1,6-3c4.4,0,8,3.6,8,8
	C300.1,76.5,296.5,80.1,292.1,80.1L292.1,80.1z M292.1,66c-3.3-0.1-6,2.6-6.1,5.9c0,0,0,0.1,0,0.1c0,3.4,2.7,6.2,6.1,6.2
	c3.3,0,6-2.6,6.1-5.9c0-0.1,0-0.2,0-0.2c0.1-3.3-2.5-5.9-5.8-6C292.2,66,292.1,66,292.1,66L292.1,66z"/>
<polygon class="st0" points="94.3,36.1 92.3,36.1 92.3,34.7 91.1,34 92.1,32.3 94.3,33.5 "/>
<path class="st0" d="M87.4,31.9l-3.6-2.1l1-1.7l3.6,2.1L87.4,31.9z M80.1,27.7l-3.6-2.1l1-1.7l3.6,2.1L80.1,27.7z M72.9,23.5
	l-3.6-2.1l1-1.7l3.6,2.1L72.9,23.5z M65.6,19.3l-3.6-2.1l1-1.7l3.6,2.1L65.6,19.3z"/>
<polygon class="st0" points="55.8,15.1 54.8,13.3 57.1,12 59.3,13.3 58.3,15.1 57.1,14.4 "/>
<path class="st0" d="M26.7,31.9l-1-1.7l3.6-2.1l1,1.7L26.7,31.9z M34,27.7l-1-1.7l3.6-2.1l1,1.7L34,27.7z M41.3,23.5l-1-1.7l3.6-2.1
	l1,1.7L41.3,23.5z M48.6,19.3l-1-1.7l3.7-2.1l1,1.7L48.6,19.3z"/>
<polygon class="st0" points="21.8,36.1 19.8,36.1 19.8,33.5 22.1,32.3 23.1,34 21.8,34.7 "/>
<path class="st0" d="M21.8,69.7h-2v-4.2h2V69.7z M21.8,61.3h-2v-4.2h2V61.3z M21.8,52.9h-2v-4.2h2V52.9z M21.8,44.5h-2v-4.2h2V44.5z
	"/>
<polygon class="st0" points="22.1,77.8 19.8,76.5 19.8,73.9 21.8,73.9 21.8,75.3 23.1,76.1 "/>
<path class="st0" d="M51.2,94.6l-3.6-2.1l1-1.7l3.6,2.1L51.2,94.6z M43.9,90.4l-3.6-2.1l1-1.7l3.6,2.1L43.9,90.4z M36.7,86.2
	L33,84.1l1-1.7l3.6,2.1L36.7,86.2z M29.4,82l-3.6-2.1l1-1.7l3.6,2.1L29.4,82z"/>
<polygon class="st0" points="57.1,98 54.8,96.7 55.8,94.9 57.1,95.6 58.3,94.9 59.3,96.7 "/>
<path class="st0" d="M62.9,94.6l-1-1.7l3.6-2.1l1,1.7L62.9,94.6z M70.2,90.4l-1-1.7l3.6-2.1l1,1.7L70.2,90.4z M77.5,86.2l-1-1.7
	l3.6-2.1l1,1.7L77.5,86.2z M84.8,82l-1-1.7l3.6-2.1l1,1.7L84.8,82z"/>
<polygon class="st0" points="92.1,77.8 91.1,76.1 92.3,75.3 92.3,73.9 94.3,73.9 94.3,76.5 "/>
<path class="st0" d="M94.3,69.7h-2v-4.2h2V69.7z M94.3,61.3h-2v-4.2h2V61.3z M94.3,52.9h-2v-4.2h2V52.9z M94.3,44.5h-2v-4.2h2V44.5z
	"/>
<rect class="st1" width="320" height="110"/>
</svg>
