<?xml version="1.0" encoding="utf-8"?>
<!-- Generator: Adobe Illustrator 24.0.0, SVG Export Plug-In . SVG Version: 6.00 Build 0)  -->
<svg version="1.1" id="Layer_1" xmlns="http://www.w3.org/2000/svg" xmlns:xlink="http://www.w3.org/1999/xlink" x="0px" y="0px"
	 viewBox="0 0 320 36.4" style="enable-background:new 0 0 320 36.4;" xml:space="preserve">
<style type="text/css">
	.st0{fill:#6EBE4C;}
	.st1{fill:#4E585A;}
</style>
<g>
	<path class="st0" d="M23.6,10.9l-5.8,14.7h-2.6L9.5,10.9h2.4l4.7,12.4l4.6-12.4H23.6z"/>
	<path class="st0" d="M36.3,25.7v-2.3c-0.5,0.7-1.2,1.3-1.9,1.8c-0.8,0.5-1.6,0.7-2.6,0.7c-1,0-1.8-0.1-2.5-0.4
		c-0.7-0.3-1.3-0.7-1.9-1.2c-1.2-1.2-1.8-2.8-1.8-4.7v-8.6h2.2v8.5c0,1.4,0.4,2.4,1.2,3.2c0.8,0.8,1.8,1.2,3,1.2
		c1.2,0,2.3-0.4,3.2-1.2c0.9-0.8,1.3-1.9,1.3-3.2v-8.5h2.2v14.7H36.3z"/>
	<path class="st0" d="M48.7,6.9c-1,0-1.8,0.2-2.3,0.7c-0.5,0.5-0.8,1.2-0.8,2.2v1.1H49v1.9h-3.4v12.8h-2.2V10.9V9.7
		c0-1.6,0.5-2.8,1.4-3.6c1-0.8,2.3-1.2,4-1.2H49v2.1H48.7z"/>
	<path class="st0" d="M57.5,10.7c2.2,0,4,0.7,5.4,2.2c1.3,1.4,1.9,3.2,1.9,5.4s-0.6,4-1.9,5.4c-1.4,1.5-3.2,2.2-5.4,2.2
		c-2.2,0-4-0.7-5.4-2.2c-1.3-1.4-1.9-3.2-1.9-5.4s0.6-4,1.9-5.4C53.5,11.5,55.3,10.7,57.5,10.7z M57.5,23.9c1.6,0,2.9-0.6,3.8-1.7
		c0.9-1,1.3-2.4,1.3-4c0-1.6-0.4-2.9-1.3-4c-0.9-1.1-2.2-1.7-3.8-1.7c-1.6,0-2.9,0.6-3.8,1.7c-0.9,1-1.3,2.4-1.3,4
		c0,1.6,0.4,2.9,1.3,4C54.7,23.4,55.9,23.9,57.5,23.9z"/>
	<path class="st0" d="M75.6,10.7v2.2h-0.3c-1.6,0-2.9,0.6-3.9,1.9c-0.9,1.2-1.4,2.7-1.4,4.4v6.5h-2.2V10.9H70v3.6
		c0.5-1.5,1.5-2.7,3.1-3.4c0.6-0.3,1.4-0.5,2.4-0.5H75.6z"/>
	<path class="st0" d="M79,5.5c0.4,0,0.8,0.1,1.1,0.4s0.4,0.6,0.4,1.1c0,0.4-0.1,0.8-0.4,1.1S79.5,8.6,79,8.6c-0.4,0-0.8-0.1-1.1-0.4
		c-0.3-0.3-0.4-0.7-0.4-1.1c0-0.4,0.1-0.8,0.4-1.1C78.2,5.7,78.6,5.5,79,5.5z M78,10.9h2.2v14.7H78V10.9z"/>
	<path class="st0" d="M95.5,23.3c-1.2,1.7-2.9,2.6-5.3,2.6c-2.1,0-3.9-0.7-5.2-2.2c-1.3-1.5-1.9-3.3-1.9-5.4c0-2.1,0.6-3.9,1.9-5.4
		c1.3-1.5,3.1-2.2,5.3-2.2c2.2,0,3.9,0.9,5.1,2.6v-2.4h2.2v14.7h-2.2V23.3z M90.5,23.9c1.6,0,2.9-0.6,3.8-1.7c0.9-1,1.3-2.4,1.3-4
		c0-1.6-0.4-2.9-1.3-4c-0.9-1.1-2.2-1.7-3.8-1.7c-1.6,0-2.9,0.6-3.8,1.7c-0.9,1-1.4,2.4-1.4,4c0,1.6,0.5,2.9,1.4,4
		C87.7,23.4,88.9,23.9,90.5,23.9z"/>
	<path class="st0" d="M102.2,11c0.3,0,0.6,0.1,0.9,0.2c0.3,0.1,0.5,0.3,0.7,0.5s0.4,0.4,0.5,0.7c0.1,0.3,0.2,0.6,0.2,0.9
		c0,0.3-0.1,0.6-0.2,0.9c-0.1,0.3-0.3,0.5-0.5,0.7c-0.2,0.2-0.4,0.4-0.7,0.5c-0.3,0.1-0.6,0.2-0.9,0.2c-0.3,0-0.6-0.1-0.9-0.2
		c-0.3-0.1-0.5-0.3-0.7-0.5c-0.2-0.2-0.4-0.4-0.5-0.7c-0.1-0.3-0.2-0.6-0.2-0.9c0-0.3,0.1-0.6,0.2-0.9c0.1-0.3,0.3-0.5,0.5-0.7
		s0.4-0.4,0.7-0.5C101.6,11,101.9,11,102.2,11z M102.2,15.2c0.5,0,1-0.2,1.4-0.6c0.2-0.2,0.3-0.4,0.4-0.6c0.1-0.2,0.2-0.5,0.2-0.8
		c0-0.3-0.1-0.5-0.2-0.8c-0.1-0.2-0.2-0.4-0.4-0.6c-0.4-0.4-0.8-0.6-1.4-0.6c-0.5,0-1,0.2-1.4,0.6c-0.4,0.4-0.6,0.8-0.6,1.4
		c0,0.3,0.1,0.5,0.2,0.8c0.1,0.2,0.2,0.4,0.4,0.6C101.2,15,101.7,15.2,102.2,15.2z M103.4,12.7c0,0.2,0,0.3-0.1,0.4
		c-0.1,0.1-0.2,0.2-0.4,0.3c0.2,0.1,0.4,0.3,0.4,0.6c0,0.1,0,0.2,0,0.2v0.3h-0.5v-0.3c0-0.2,0-0.3-0.1-0.4c-0.1-0.2-0.2-0.3-0.5-0.3
		h-0.6v0.9h-0.5V12h1.1c0.4,0,0.6,0.1,0.8,0.2C103.3,12.3,103.4,12.5,103.4,12.7z M102.3,13.2c0.2,0,0.3,0,0.4-0.1
		c0.1-0.1,0.2-0.2,0.2-0.3c0-0.1,0-0.2-0.1-0.3c-0.1-0.1-0.3-0.1-0.5-0.1h-0.6v0.8H102.3z"/>
	<path class="st1" d="M307.9,11.2v-0.4h2.7v0.4h-1.1V14H309v-2.8H307.9z M313.8,10.7h0.5V14h-0.5v-2.5l-1.1,1.4l-1.1-1.4V14h-0.5
		v-3.2h0.5l1.1,1.4L313.8,10.7z"/>
</g>
<g>
	<path class="st1" d="M123.3,14.8c-0.2-1.6-1.5-2.4-3.8-2.4c-2.3,0-3.5,0.7-3.5,2.2c0,0.6,0.2,1.1,0.7,1.4c0.5,0.3,1.1,0.6,1.8,0.8
		c0.7,0.2,1.5,0.4,2.4,0.6c0.9,0.2,1.7,0.4,2.4,0.7c0.7,0.3,1.4,0.7,1.8,1.3c0.5,0.5,0.7,1.3,0.7,2.2c0,1.5-0.5,2.6-1.6,3.4
		c-1.1,0.8-2.6,1.2-4.5,1.2c-2,0-3.6-0.5-4.8-1.5c-1.1-0.9-1.7-2-1.7-3.5h2.3c0.1,1.4,0.9,2.3,2.3,2.8c0.5,0.2,1,0.2,1.5,0.2
		c0.5,0,1,0,1.4-0.1c0.4-0.1,0.9-0.2,1.3-0.3c1-0.4,1.4-1,1.4-2c0-0.6-0.2-1.1-0.7-1.4c-0.5-0.3-1.1-0.6-1.8-0.8
		c-0.7-0.2-1.5-0.4-2.4-0.6c-0.9-0.2-1.7-0.4-2.4-0.7c-0.7-0.3-1.4-0.7-1.8-1.2c-0.5-0.5-0.7-1.2-0.7-2.2c0-1.4,0.5-2.4,1.5-3.2
		c1-0.8,2.4-1.1,4.4-1.1c1.8,0,3.3,0.4,4.3,1.3c0.9,0.7,1.4,1.7,1.5,3H123.3z"/>
	<path class="st1" d="M131.1,13.1c1.2-1.8,3-2.7,5.4-2.7c2.2,0,3.9,0.8,5.2,2.3c1.3,1.5,2,3.3,2,5.5c0,2.2-0.7,4-2,5.5
		c-1.3,1.5-3.1,2.3-5.4,2.3c-2.3,0-4-0.9-5.2-2.7v8.4h-2.2v-21h2.2V13.1z M136.2,12.5c-1.6,0-2.9,0.6-3.8,1.7
		c-0.9,1.1-1.3,2.4-1.3,4s0.4,3,1.3,4c0.9,1.1,2.2,1.7,3.8,1.7c1.6,0,2.9-0.6,3.9-1.7c0.9-1.1,1.4-2.4,1.4-4s-0.5-3-1.4-4
		C139.1,13.1,137.8,12.5,136.2,12.5z"/>
	<path class="st1" d="M158.3,23.4c-1.2,1.8-3,2.7-5.4,2.7c-2.2,0-3.9-0.8-5.3-2.3c-1.3-1.5-2-3.3-2-5.5c0-2.2,0.7-4,2-5.5
		c1.4-1.5,3.2-2.3,5.4-2.3c2.3,0,4,0.9,5.2,2.7v-2.4h2.2v15.1h-2.2V23.4z M153.3,24c1.6,0,2.9-0.6,3.8-1.7c0.9-1.1,1.3-2.4,1.3-4
		s-0.4-3-1.3-4c-0.9-1.1-2.2-1.7-3.8-1.7c-1.6,0-2.9,0.6-3.9,1.7c-0.9,1.1-1.4,2.4-1.4,4s0.5,3,1.4,4C150.4,23.4,151.7,24,153.3,24z
		"/>
	<path class="st1" d="M166.1,25.8V12.7H163v-2h3.1V5.3h2.2v5.4h3.4v2h-3.4v13.1H166.1z"/>
	<path class="st1" d="M175.3,5.2c0.4,0,0.8,0.2,1.1,0.5c0.3,0.3,0.4,0.7,0.4,1.1c0,0.4-0.1,0.8-0.4,1.1c-0.3,0.3-0.7,0.5-1.1,0.5
		c-0.4,0-0.8-0.2-1.1-0.5c-0.3-0.3-0.4-0.7-0.4-1.1c0-0.4,0.1-0.8,0.4-1.1C174.5,5.3,174.9,5.2,175.3,5.2z M174.2,10.7h2.2v15.1
		h-2.2V10.7z"/>
	<path class="st1" d="M192,23.4c-1.2,1.8-3,2.7-5.4,2.7c-2.2,0-3.9-0.8-5.3-2.3c-1.3-1.5-2-3.3-2-5.5c0-2.2,0.7-4,2-5.5
		c1.4-1.5,3.2-2.3,5.4-2.3c2.3,0,4,0.9,5.2,2.7v-2.4h2.2v15.1H192V23.4z M187,24c1.6,0,2.9-0.6,3.8-1.7c0.9-1.1,1.3-2.4,1.3-4
		s-0.4-3-1.3-4c-0.9-1.1-2.2-1.7-3.8-1.7c-1.6,0-2.9,0.6-3.9,1.7c-0.9,1.1-1.4,2.4-1.4,4s0.5,3,1.4,4C184.1,23.4,185.4,24,187,24z"
		/>
	<path class="st1" d="M200.4,25.8h-2.2V4.7h2.2V25.8z"/>
	<path class="st1" d="M212.3,25.8V12.7h-3.1v-2h3.1V5.3h2.2v5.4h3.4v2h-3.4v13.1H212.3z"/>
	<path class="st1" d="M226.6,10.5c2.2,0,4,0.8,5.4,2.3c1.3,1.4,2,3.3,2,5.5s-0.7,4.1-2,5.5c-1.4,1.5-3.2,2.3-5.4,2.3
		c-2.2,0-4.1-0.8-5.4-2.3c-1.3-1.4-2-3.3-2-5.5s0.7-4.1,2-5.5C222.6,11.2,224.4,10.5,226.6,10.5z M226.6,24c1.6,0,2.9-0.6,3.8-1.7
		c0.9-1.1,1.3-2.4,1.3-4s-0.4-3-1.3-4c-0.9-1.1-2.2-1.7-3.8-1.7s-2.9,0.6-3.8,1.7c-0.9,1.1-1.3,2.4-1.3,4s0.4,3,1.3,4
		C223.7,23.4,225,24,226.6,24z"/>
	<path class="st1" d="M243.5,10.5c2.2,0,4,0.8,5.4,2.3c1.3,1.4,2,3.3,2,5.5s-0.7,4.1-2,5.5c-1.4,1.5-3.2,2.3-5.4,2.3
		c-2.2,0-4.1-0.8-5.4-2.3c-1.3-1.4-2-3.3-2-5.5s0.7-4.1,2-5.5C239.4,11.2,241.3,10.5,243.5,10.5z M243.5,24c1.6,0,2.9-0.6,3.8-1.7
		c0.9-1.1,1.3-2.4,1.3-4s-0.4-3-1.3-4c-0.9-1.1-2.2-1.7-3.8-1.7c-1.6,0-2.9,0.6-3.8,1.7c-0.9,1.1-1.3,2.4-1.3,4s0.4,3,1.3,4
		C240.6,23.4,241.9,24,243.5,24z"/>
	<path class="st1" d="M256.1,25.8h-2.2V4.7h2.2V25.8z"/>
	<path class="st1" d="M262.3,13.2c1.2-1.8,3-2.7,5.4-2.7c2.2,0,3.9,0.8,5.2,2.3c1.3,1.5,2,3.3,2,5.5c0,2.2-0.7,4-2,5.5
		c-1.3,1.5-3.1,2.3-5.4,2.3c-2.3,0-4-0.9-5.2-2.7v2.4H260V4.7h2.2V13.2z M267.3,24c1.6,0,2.9-0.6,3.9-1.7c0.9-1.1,1.4-2.4,1.4-4
		s-0.5-3-1.4-4c-1-1.1-2.3-1.7-3.9-1.7c-1.6,0-2.9,0.6-3.8,1.7c-0.9,1.1-1.3,2.4-1.3,4s0.4,3,1.3,4C264.4,23.4,265.7,24,267.3,24z"
		/>
	<path class="st1" d="M284.3,10.5c2.2,0,4,0.8,5.4,2.3c1.3,1.4,2,3.3,2,5.5s-0.7,4.1-2,5.5c-1.4,1.5-3.2,2.3-5.4,2.3
		c-2.2,0-4.1-0.8-5.4-2.3c-1.3-1.4-2-3.3-2-5.5s0.7-4.1,2-5.5C280.2,11.2,282.1,10.5,284.3,10.5z M284.3,24c1.6,0,2.9-0.6,3.8-1.7
		c0.9-1.1,1.3-2.4,1.3-4s-0.4-3-1.3-4c-0.9-1.1-2.2-1.7-3.8-1.7c-1.6,0-2.9,0.6-3.8,1.7c-0.9,1.1-1.3,2.4-1.3,4s0.4,3,1.3,4
		C281.4,23.4,282.7,24,284.3,24z"/>
	<path class="st1" d="M300.6,18l5.8,7.8h-2.9l-4.2-6.2l-4.2,6.2h-2.8L298,18l-5.4-7.3h2.9l3.9,5.7l3.8-5.7h2.9L300.6,18z"/>
</g>
</svg>
