<svg xmlns="http://www.w3.org/2000/svg" viewBox="0 0 112 112">
  <defs>
    <style>
      .cls-1 {
        opacity: 0.25;
      }

      .cls-2 {
        fill: #75fbfd;
      }
    </style>
  </defs>
  <title>Asset 6</title>
  <g id="Layer_2" data-name="Layer 2">
    <g id="UI">
      <g>
        <g class="cls-1">
          <rect width="112" height="112" rx="5"/>
        </g>
        <g>
          <circle class="cls-2" cx="43.5" cy="53.85" r="6"/>
          <ellipse class="cls-2" cx="59.63" cy="35.56" rx="4.66" ry="6" transform="translate(18.6 91.57) rotate(-84.59)"/>
          <circle class="cls-2" cx="66.37" cy="60.66" r="6"/>
          <g>
            <path class="cls-2" d="M59.33,36.91l-.53-.79a39.23,39.23,0,0,0-8.27-8.94l-1.78-1.41L51,25.41a30.84,30.84,0,0,1,21.68,4.46l2.08,1.33-2.42.49a38.54,38.54,0,0,0-12.19,4.73Zm-5.78-9.8a40.68,40.68,0,0,1,6.38,7.12,41,41,0,0,1,9.53-3.92A28.82,28.82,0,0,0,53.55,27.11Z"/>
            <path class="cls-2" d="M56,87q-.64,0-1.29,0l-2.26-.1L54,85.26a38.77,38.77,0,0,0,8.9-13.89l.35-1,.95.37a38.67,38.67,0,0,0,14.26,2.7h.78l2.46-.07-1.31,1.67A30.83,30.83,0,0,1,56,87Zm8.45-14a40.53,40.53,0,0,1-7.4,12,28.79,28.79,0,0,0,20.43-9.51A40.83,40.83,0,0,1,64.45,73Z"/>
            <path class="cls-2" d="M78.5,75.48a40.84,40.84,0,0,1-15-2.83l-.91-.36.34-.92a39,39,0,0,0,2.32-10.78l0-.59.54-.25A39,39,0,0,0,83,44.35l1-1.73.75,1.87a31,31,0,0,1-4.35,30.58l-.29.37-.79,0ZM65.15,71.13A38.86,38.86,0,0,0,78.5,73.48h.64a29,29,0,0,0,4.47-26.35,40.9,40.9,0,0,1-16.4,14.2A41.18,41.18,0,0,1,65.15,71.13Z"/>
            <path class="cls-2" d="M65.14,62.28l.12-1.69c.08-1.07.11-2,.11-2.8A38.79,38.79,0,0,0,58.8,36.12l-.59-.88.91-.54a40.72,40.72,0,0,1,12.81-5l.4-.08.34.22A30.89,30.89,0,0,1,84.78,44.49L85,45l-.26.43a40.92,40.92,0,0,1-18,16.19ZM61,35.9a40.75,40.75,0,0,1,6.33,21.89c0,.39,0,.8,0,1.23A38.94,38.94,0,0,0,82.74,44.77a29.45,29.45,0,0,0-10.81-13A38.85,38.85,0,0,0,61,35.9Z"/>
            <path class="cls-2" d="M43.94,84.67l-2.19-1.14A31,31,0,0,1,25,56.71l-.05-2,1.64,1.19A38.6,38.6,0,0,0,40.9,62.36l.92.21-.16.93a39.88,39.88,0,0,0-.53,6.41,38.84,38.84,0,0,0,2,12.41Zm-16.81-26a29,29,0,0,0,13.4,21.85,40.72,40.72,0,0,1-1-16.42A40.53,40.53,0,0,1,27.13,58.67Z"/>
            <path class="cls-2" d="M41.49,64.55l-1-.24a40.58,40.58,0,0,1-15-6.81l-.4-.29,0-.72c0-.16,0-.32,0-.49A31.07,31.07,0,0,1,38,30.74l1.73-1.23-.16,2.12c-.07,1.08-.11,2-.11,2.85a39,39,0,0,0,4.87,18.88l.24.44-.2.45a38.78,38.78,0,0,0-2.75,9.25ZM27,56.16a38.6,38.6,0,0,0,12.88,6,40.63,40.63,0,0,1,2.5-8.22A41.14,41.14,0,0,1,37.5,34.48c0-.26,0-.53,0-.81A29.07,29.07,0,0,0,27,56Z"/>
            <path class="cls-2" d="M43.6,56.1l-1-1.77A41.06,41.06,0,0,1,37.5,34.48c0-.91,0-1.86.12-3l0-.47.39-.28a31,31,0,0,1,13-5.33l.43-.07.35.27A41.27,41.27,0,0,1,60.46,35l.59.87-.91.54A38.87,38.87,0,0,0,44.41,54.25Zm-4-24c-.06.88-.08,1.65-.08,2.38a39,39,0,0,0,4,17.11A40.76,40.76,0,0,1,58.21,35.26a39,39,0,0,0-7.34-7.8A29.14,29.14,0,0,0,39.58,32.1Z"/>
            <path class="cls-2" d="M55.15,87l-.44,0a30.79,30.79,0,0,1-13-3.44l-.36-.19L41.26,83a41.11,41.11,0,0,1-2.13-13,41.7,41.7,0,0,1,.56-6.74l.17-1,1,.23a39,39,0,0,0,10.84.9l.42,0,.31.28a38.79,38.79,0,0,0,11.77,7.26l.92.36-.35.92a40.54,40.54,0,0,1-9.35,14.61ZM43,81.94a28.78,28.78,0,0,0,11.32,3,38.59,38.59,0,0,0,8.24-12.68,40.82,40.82,0,0,1-11.15-7,41.26,41.26,0,0,1-9.94-.74A39.07,39.07,0,0,0,43,81.94Z"/>
            <path class="cls-2" d="M64.46,73l-.95-.37A41.13,41.13,0,0,1,51.13,65L49.34,63.4l2.4-.14a38.48,38.48,0,0,0,14.1-3.51l1.54-.7-.13,1.68a40.22,40.22,0,0,1-2.44,11.33Zm-10.17-8a38.53,38.53,0,0,0,9,5.34,39.25,39.25,0,0,0,1.82-8.13A40.57,40.57,0,0,1,54.29,65.05Z"/>
            <path class="cls-2" d="M49.52,65.33a40.93,40.93,0,0,1-9.06-1l-.92-.2.15-.94a41,41,0,0,1,2.89-9.73l.81-1.84,1,1.76a39,39,0,0,0,8.1,10.16l1.79,1.61-2.4.13C51.08,65.31,50.31,65.33,49.52,65.33Zm-7.69-2.77a39.29,39.29,0,0,0,7.54.77,40.66,40.66,0,0,1-5.71-7.23A38.06,38.06,0,0,0,41.83,62.56Z"/>
            <path class="cls-2" d="M51.44,65.28,51.13,65a41.11,41.11,0,0,1-8.51-10.68l-.24-.43.2-.46A40.91,40.91,0,0,1,59.12,34.7l.81-.48.53.79a40.81,40.81,0,0,1,6.91,22.78c0,.88,0,1.82-.12,2.94l0,.59-.53.25a40.68,40.68,0,0,1-14.82,3.69ZM44.61,53.79a39.17,39.17,0,0,0,7.55,9.45A38.5,38.5,0,0,0,65.3,60c0-.82.07-1.53.07-2.21a38.81,38.81,0,0,0-6.05-20.87A39,39,0,0,0,44.61,53.79Z"/>
          </g>
        </g>
      </g>
    </g>
  </g>
</svg>
