<svg xmlns="http://www.w3.org/2000/svg" viewBox="0 0 112 112">
  <defs>
    <style>
      .cls-1 {
        opacity: 0.25;
      }

      .cls-2 {
        fill: #75fbfd;
      }
    </style>
  </defs>
  <title>Asset 11</title>
  <g id="Layer_2" data-name="Layer 2">
    <g id="UI">
      <g>
        <g class="cls-1">
          <rect class="cls-2" width="112" height="112" rx="5"/>
        </g>
        <g>
          <path class="cls-2" d="M56,78.17h-.45L54.42,78l-.12,0-.17,0-.41-.12-.11,0-.16-.06a5.57,5.57,0,0,1-.66-.27l-.69-.37a7.42,7.42,0,0,1-3.35-4.39,1,1,0,0,1,.17-.88,1,1,0,0,1,.79-.39h0l12.54.06a1,1,0,0,1,.79.4,1,1,0,0,1,.16.88,7.5,7.5,0,0,1-3.39,4.36h0l-.63.34-.65.27-.24.08-.1,0-1,.22-.13,0-.76.07H56Zm1.09-2.11.33,1-.21-1,.59-.17.49-.19.51-.27h0a5.52,5.52,0,0,0,1.94-1.93l-9.52,0a5.6,5.6,0,0,0,1.92,1.95l.47.25a4.09,4.09,0,0,0,.47.2l.56.18-.13,1,.26-1,1.19.13Z"/>
          <path class="cls-2" d="M72.78,68.53h0L39.2,68.36a1,1,0,0,1-1-1V64.89a1,1,0,0,1,.23-.63L42.88,59c0-.76,0-1.5,0-2.21,0-1.62,0-3.14,0-4.57C43.2,46,45,41.52,53.17,38.78V36.85a2.9,2.9,0,0,1,3-3h0a2.9,2.9,0,0,1,3,3.05v1.93c8.1,2.82,9.88,7.28,10.1,13.5,0,1.43,0,3,0,4.59,0,.7,0,1.43,0,2.18l4.38,5.36a.94.94,0,0,1,.22.64v2.46A1,1,0,0,1,72.78,68.53ZM40.21,66.36l31.58.17v-1.1l-4.38-5.36a1.05,1.05,0,0,1-.22-.64c0-.89,0-1.75,0-2.59,0-1.59,0-3.09,0-4.46C67,46.44,65.5,43,57.81,40.48a1,1,0,0,1-.7-1l0-2.65a.94.94,0,0,0-1-1h0a.93.93,0,0,0-1,1l0,2.65a1,1,0,0,1-.7,1c-7.72,2.41-9.27,5.86-9.54,11.8-.06,1.38-.05,2.89,0,4.48,0,.83,0,1.69,0,2.58a1,1,0,0,1-.23.63l-4.43,5.31Z"/>
          <path class="cls-2" d="M36.39,59.8a1,1,0,0,1-.71-.29,11.08,11.08,0,0,1,0-15.66,1,1,0,1,1,1.41,1.41,9.1,9.1,0,0,0,0,12.84,1,1,0,0,1,0,1.41A1,1,0,0,1,36.39,59.8Z"/>
          <path class="cls-2" d="M75.76,59.8a1,1,0,0,1-.71-.29,1,1,0,0,1,0-1.41,9.09,9.09,0,0,0,0-12.84,1,1,0,0,1,0-1.41,1,1,0,0,1,1.41,0,11.08,11.08,0,0,1,0,15.66A1,1,0,0,1,75.76,59.8Z"/>
          <path class="cls-2" d="M30.92,64.55a1,1,0,0,1-.71-.29,17.82,17.82,0,0,1,0-25.17,1,1,0,1,1,1.42,1.42,15.81,15.81,0,0,0,0,22.34,1,1,0,0,1-.71,1.7Z"/>
          <path class="cls-2" d="M81.08,64.61a1,1,0,0,1-.71-.29,1,1,0,0,1,0-1.41,15.81,15.81,0,0,0,0-22.34,1,1,0,0,1,1.42-1.42,17.82,17.82,0,0,1,0,25.17A1,1,0,0,1,81.08,64.61Z"/>
        </g>
      </g>
    </g>
  </g>
</svg>
