<svg xmlns="http://www.w3.org/2000/svg" viewBox="0 0 112 112">
  <defs>
    <style>
      .cls-1 {
        opacity: 0.25;
      }

      .cls-2 {
        fill: #75fbfd;
      }
    </style>
  </defs>
  <title>Asset 4</title>
  <g id="Layer_2" data-name="Layer 2">
    <g id="UI">
      <g>
        <g class="cls-1">
          <rect width="112" height="112" rx="5"/>
        </g>
        <g>
          <path class="cls-2" d="M65,69c-5.17,0-7.58-6.49-9.91-12.76C53,50.6,50.81,44.79,47,45c-4.34.27-7.31,8.21-8.09,11.24L37,55.76c.13-.51,3.23-12.33,9.91-12.75,5.24-.32,7.68,6.21,10,12.54C59,61.18,61.19,67,65,67s7.12-8.14,8-11.28l1.92.56C74.55,57.59,71,69,65,69Z"/>
          <path class="cls-2" d="M56,87A31,31,0,1,1,87,56,31,31,0,0,1,56,87Zm0-60A29,29,0,1,0,85,56,29,29,0,0,0,56,27Z"/>
          <path class="cls-2" d="M98,57H86a1,1,0,0,1,0-2H98a1,1,0,0,1,0,2Z"/>
          <path class="cls-2" d="M26,57H14a1,1,0,0,1,0-2H26a1,1,0,0,1,0,2Z"/>
        </g>
      </g>
    </g>
  </g>
</svg>
