<svg xmlns="http://www.w3.org/2000/svg" viewBox="0 0 112 112">
  <defs>
    <style>
      .cls-1 {
        opacity: 0.25;
      }

      .cls-2 {
        fill: #75fbfd;
      }
    </style>
  </defs>
  <title>Asset 8</title>
  <g id="Layer_2" data-name="Layer 2">
    <g id="UI">
      <g>
        <g class="cls-1">
          <rect class="cls-2" width="112" height="112" rx="5"/>
        </g>
        <g>
          <path class="cls-2" d="M42.86,64.92,46,68.08,40,74.14l6.06,6-3.16,3.16-6.06-6-6.06,6-3.16-3.16,6.06-6-6.06-6.06,3.16-3.16L36.8,71l6.06-6.06m0-2a2,2,0,0,0-1.42.59L36.8,68.15l-4.64-4.64a2,2,0,0,0-1.42-.59,2,2,0,0,0-1.41.59l-3.16,3.15a2,2,0,0,0-.59,1.42,2,2,0,0,0,.59,1.41l4.64,4.65-4.64,4.64a2,2,0,0,0,0,2.83l3.16,3.16a2,2,0,0,0,1.41.58,2,2,0,0,0,1.42-.58l4.64-4.65,4.64,4.65a2,2,0,0,0,1.42.58,2,2,0,0,0,1.41-.58l3.16-3.16a2,2,0,0,0,0-2.83l-4.64-4.64,4.64-4.65A2,2,0,0,0,48,68.08a2,2,0,0,0-.59-1.42l-3.16-3.15a2,2,0,0,0-1.41-.59Z"/>
          <path class="cls-2" d="M39,28.65v8.56H47.6v4.47H39v8.57H34.56V41.68H26V37.21h8.56V28.65H39m0-2H34.56a2,2,0,0,0-2,2v6.56H26a2,2,0,0,0-2,2v4.47a2,2,0,0,0,2,2h6.56v6.57a2,2,0,0,0,2,2H39a2,2,0,0,0,2-2V43.68H47.6a2,2,0,0,0,2-2V37.21a2,2,0,0,0-2-2H41V28.65a2,2,0,0,0-2-2Z"/>
          <path class="cls-2" d="M86,37.21v4.47H64.4V37.21H86m0-2H64.4a2,2,0,0,0-2,2v4.47a2,2,0,0,0,2,2H86a2,2,0,0,0,2-2V37.21a2,2,0,0,0-2-2Z"/>
          <g>
            <path class="cls-2" d="M86,65.94v4.47H64.4V65.94H86m0-2H64.4a2,2,0,0,0-2,2v4.47a2,2,0,0,0,2,2H86a2,2,0,0,0,2-2V65.94a2,2,0,0,0-2-2Z"/>
            <path class="cls-2" d="M86,77.86v4.47H64.4V77.86H86m0-2H64.4a2,2,0,0,0-2,2v4.47a2,2,0,0,0,2,2H86a2,2,0,0,0,2-2V77.86a2,2,0,0,0-2-2Z"/>
          </g>
        </g>
      </g>
    </g>
  </g>
</svg>
