<?xml version="1.0" encoding="utf-8"?>
<!-- Generator: Adobe Illustrator 22.1.0, SVG Export Plug-In . SVG Version: 6.00 Build 0)  -->
<svg version="1.1" id="Layer_1" xmlns="http://www.w3.org/2000/svg" xmlns:xlink="http://www.w3.org/1999/xlink" x="0px" y="0px"
	 viewBox="0 0 60 60" style="enable-background:new 0 0 60 60;" xml:space="preserve">
<style type="text/css">
	.st0{fill:#01FFFD;}
	.st1{fill:#01FFFD;fill-opacity:0;}
</style>
<path class="st0" d="M60,60H0V0h60V60z M58.1,1.9H1.9v56.3h56.3V1.9H58.1z"/>
<rect id="bg" x="0.1" y="0.3" class="st1" width="60" height="60"/>
<path class="st0" d="M24.9,26.7c1.6,0,2.9-1.3,2.9-2.9v-9.6c0-1.6-1.3-2.9-2.9-2.9h-9.6c-1.6,0-2.9,1.3-2.9,2.9v9.6
	c0,1.6,1.3,2.9,2.9,2.9h3.9v6.9h-3.9c-1.6,0-2.9,1.3-2.9,2.9v9.6c0,1.6,1.3,2.9,2.9,2.9h9.6c1.6,0,2.9-1.3,2.9-2.9v-9.6
	c0-1.6-1.3-2.9-2.9-2.9H21v-6.9H24.9z M24.9,35.4c0.6,0,1.1,0.5,1.1,1.1v9.6c0,0.6-0.5,1.1-1.1,1.1h-9.6c-0.6,0-1.1-0.5-1.1-1.1
	v-9.6c0-0.6,0.5-1.1,1.1-1.1H24.9z M15.3,24.9c-0.6,0-1.1-0.5-1.1-1.1v-9.6c0-0.6,0.5-1.1,1.1-1.1h9.6c0.6,0,1.1,0.5,1.1,1.1v9.6
	c0,0.6-0.5,1.1-1.1,1.1H15.3z"/>
<path class="st0" d="M46.3,33.6h-3.9V21.1c0-1.7-1.4-3.1-3.1-3.1h-6.7l5.5-5.1l-1.2-1.3L29,19l7.9,7.4l1.2-1.3l-5.5-5.1h6.8
	c0.7,0,1.2,0.6,1.2,1.2v12.5h-3.9c-1.6,0-2.9,1.3-2.9,2.9v9.6c0,1.6,1.3,2.9,2.9,2.9h9.6c1.6,0,2.9-1.3,2.9-2.9v-9.6
	C49.2,34.9,47.9,33.6,46.3,33.6z M47.4,46.1c0,0.6-0.5,1.1-1.1,1.1h-9.6c-0.6,0-1.1-0.5-1.1-1.1v-9.6c0-0.6,0.5-1.1,1.1-1.1h9.6
	c0.6,0,1.1,0.5,1.1,1.1V46.1z"/>
</svg>
