<?xml version="1.0" encoding="utf-8"?>
<!-- Generator: Adobe Illustrator 25.4.1, SVG Export Plug-In . SVG Version: 6.00 Build 0)  -->
<svg version="1.1" id="Layer_1" xmlns="http://www.w3.org/2000/svg" xmlns:xlink="http://www.w3.org/1999/xlink" x="0px" y="0px"
	 viewBox="0 0 60 60" style="enable-background:new 0 0 60 60;" xml:space="preserve">
<style type="text/css">
	.st0{fill:#01FFFD;}
	.st1{display:none;fill:#01FFFD;fill-opacity:0;}
</style>
<path class="st0" d="M45.1,25c1.2,0,2.1-0.9,2.1-2.1v-8.1c0-1.2-0.9-2.1-2.1-2.1H37c-1.2,0-2.1,0.9-2.1,2.1v3H24.9
	c-0.5-2.9-3-5.1-6-5.1c-3.4,0-6.1,2.8-6.1,6.1c0,3,2.2,5.6,5.1,6V35h-3.1c-1.1,0-2.1,0.9-2.1,2.1v8.1c0,1.2,0.9,2.1,2.1,2.1h8.1
	c1.1,0,2.1-0.9,2.1-2.1v-3H35c0.5,2.9,3,5.1,6,5.1c3.4,0,6.1-2.8,6.1-6.1c0-3-2.2-5.6-5.1-6V25H45.1z M14.7,18.8
	c0-2.3,1.9-4.1,4.1-4.1c1.9,0,3.6,1.3,4,3.1c0.1,0.3,0.1,0.7,0.1,1s0,0.7-0.1,1c-0.4,1.5-1.5,2.7-3,3c-0.3,0.1-0.6,0.1-1,0.1
	c-0.3,0-0.7,0-1-0.1C16,22.4,14.7,20.8,14.7,18.8z M23,45.1C23,45.2,22.9,45.2,23,45.1l-8.2,0.1c0,0-0.1,0-0.1-0.1V37
	c0-0.1,0-0.1,0.1-0.1h8.1c0,0,0.1,0,0.1,0.1V45.1z M45.2,41.1c0,2.3-1.9,4.1-4.1,4.1c-1.9,0-3.6-1.3-4-3.1c-0.1-0.3-0.1-0.7-0.1-1
	s0-0.7,0.1-1c0.4-1.5,1.5-2.6,3-3c0.3-0.1,0.7-0.1,1-0.1c0.4,0,0.7,0,1,0.1C43.9,37.5,45.2,39.2,45.2,41.1z M40.1,35
	c-2.6,0.4-4.6,2.5-5,5H25v-3c0-1.2-0.9-2.1-2.1-2.1h-3.1V24.9c2.6-0.4,4.6-2.5,5-5h10.1v3c0,1.2,0.9,2.1,2.1,2.1h3V35z M37,23
	C37,23,36.9,22.9,37,23l-0.1-8.2c0,0,0-0.1,0.1-0.1h8.1c0.1,0,0.1,0,0.1,0.1v8.1c0,0.1,0,0.1-0.1,0.1H37z"/>
<rect id="bg" class="st1" width="60" height="60"/>
</svg>
