<?xml version="1.0" encoding="utf-8"?>
<!-- Generator: Adobe Illustrator 25.4.1, SVG Export Plug-In . SVG Version: 6.00 Build 0)  -->
<svg version="1.1" id="Layer_1" xmlns="http://www.w3.org/2000/svg" xmlns:xlink="http://www.w3.org/1999/xlink" x="0px" y="0px"
	 viewBox="0 0 60 60" style="enable-background:new 0 0 60 60;" xml:space="preserve">
<style type="text/css">
	.st0{fill:#01FFFD;}
	.st1{display:none;fill:#01FFFD;fill-opacity:0;}
</style>
<path class="st0" d="M39.7,22.2l9.8-9.8l-1.9-1.9l-9.8,9.8l-3-3c-0.4-0.4-1-0.6-1.6-0.6c-0.6,0-1.1,0.2-1.6,0.6l-2.1,2.1L17,32
	c-0.9,0.9-0.9,2.3,0,3.1l3,3l-9.5,9.5l1.9,1.9l9.5-9.5l3,3c0.4,0.4,1,0.7,1.6,0.7c0.6,0,1.1-0.2,1.6-0.7l2.1-2.1l5.3-5.2l7.3-7.3
	c0.4-0.4,0.6-1,0.6-1.6s-0.2-1.1-0.6-1.6L39.7,22.2z M32.4,35.9l-2,2l-1.7,1.7l-2.1,2.1c0,0-0.1,0.1-0.1,0.1s-0.1,0-0.1-0.1l-3-3
	l-1.9-1.9l-3-3c-0.1-0.1-0.1-0.2,0-0.3l2.1-2.1l4.7-4.7l8.2,8.2L32.4,35.9z M41.3,27L41.3,27l-6.5,6.5l-8.2-8.2l4.4-4.4l2.1-2.1
	c0,0,0.1-0.1,0.2-0.1c0,0,0.1,0,0.1,0.1l3,3l1.9,1.9l3,3C41.4,26.7,41.4,26.9,41.3,27z"/>
<rect id="bg" class="st1" width="60" height="60"/>
</svg>
