<svg id="Layer_1" data-name="Layer 1" xmlns="http://www.w3.org/2000/svg" viewBox="0 0 60 60">
  <defs>
    <style>
      .blue {
        fill: #01fffd;
      }

      .blue-stroked {
        fill: none;
        stroke: #01fffd;
        stroke-miterlimit: 10;
      }
    </style>
  </defs>
  <path class="blue" d="M60,60H0V0H60ZM58.1,1.9H1.9V58.2H58.2V1.9Z"/>
  <g>
    <g>
      <line class="blue-stroked" x1="52.1" y1="34.87" x2="52.1" y2="34.82"/>
      <line class="blue-stroked" x1="30.78" y1="47.18" x2="49.45" y2="36.4"/>
      <line class="blue-stroked" x1="52.1" y1="34.87" x2="52.1" y2="37.94"/>
      <line class="blue-stroked" x1="7.9" y1="34.87" x2="7.9" y2="34.82"/>
      <polyline class="blue-stroked" points="20.5 27.54 7.9 34.82 7.9 34.87 10.55 36.4 29.22 47.18"/>
      <polyline class="blue-stroked" points="10.55 36.4 29.22 47.18 30.78 47.18 49.45 36.4 52.1 34.87 52.1 34.82 39.48 27.54"/>
      <line class="blue-stroked" x1="7.9" y1="34.87" x2="7.9" y2="37.94"/>
      <polyline class="blue-stroked" points="7.9 37.94 7.9 37.98 29.22 50.29 30.78 50.29 52.1 37.98 52.1 37.94"/>
    </g>
    <g>
      <path class="blue" d="M32.89,30.66a10.85,10.85,0,0,1-2.91.43,9.86,9.86,0,0,1-4.1-18.84l.43.92a8.89,8.89,0,1,0,6.31-.38l-.1,2-4.32-2.7,4.53-2.38,0,2a10,10,0,0,1,6.8,6.59A9.88,9.88,0,0,1,32.89,30.66Z"/>
      <rect class="blue" x="29.44" y="15.65" width="1.03" height="9.18"/>
      <rect class="blue" x="29.44" y="25.96" width="1.03" height="1.35"/>
    </g>
    <polygon class="blue" points="34.37 37.36 33.37 37.92 30.05 36.02 26.8 37.9 25.77 37.33 29.05 35.44 25.64 33.46 26.64 32.89 30.05 34.86 33.22 33.03 34.26 33.59 31.05 35.44 34.37 37.36"/>
  </g>
</svg>
