<?xml version="1.0" encoding="utf-8"?>
<!-- Generator: Adobe Illustrator 25.4.1, SVG Export Plug-In . SVG Version: 6.00 Build 0)  -->
<svg version="1.1" id="Layer_1" xmlns="http://www.w3.org/2000/svg" xmlns:xlink="http://www.w3.org/1999/xlink" x="0px" y="0px"
	 viewBox="0 0 60 60" style="enable-background:new 0 0 60 60;" xml:space="preserve">
<style type="text/css">
	.st0{fill:#00FFFF;}
	.st1{fill:#01FFFD;fill-opacity:0;}
</style>
<path id="test" class="st0" d="M43.5,25.9c-2.3,0-4.4,0.9-6,2.3l-6.7-6c1.1-1.5,1.7-3.3,1.7-5.2c0-4.9-4-8.9-8.9-8.9s-9,4-9,8.9
	c0,4.2,3,7.8,7,8.7L21.3,34c-4.8,0.1-8.8,4-8.8,8.9s4,8.9,8.9,8.9s9-4,9-8.9c0-4.3-3.1-7.9-7.3-8.7l0.3-8.2h0.1c2.3,0,4.4-0.9,6-2.3
	l6.7,6.1c-1.1,1.5-1.7,3.3-1.7,5.2c0,4.9,4,8.9,8.9,8.9s8.9-4,8.9-8.9C52.3,29.9,48.3,25.9,43.5,25.9z M28.7,42.7c0,3.9-3.2,7-7.1,7
	s-7.1-3.2-7.1-7s3.2-7,7.1-7S28.7,38.9,28.7,42.7z M23.5,24c-3.9,0-7.1-3.2-7.1-7c0-3.9,3.2-7,7.1-7s7.1,3.2,7.1,7
	C30.7,20.8,27.5,24,23.5,24z M43.5,41.8c-3.9,0-7.1-3.2-7.1-7s3.2-7,7.1-7s7.1,3.2,7.1,7S47.3,41.8,43.5,41.8z"/>
<rect id="bg" class="st1" width="60" height="60"/>
</svg>
