<?xml version="1.0" encoding="utf-8"?>
<!-- Generator: Adobe Illustrator 22.1.0, SVG Export Plug-In . SVG Version: 6.00 Build 0)  -->
<svg version="1.1" id="Layer_1" xmlns="http://www.w3.org/2000/svg" xmlns:xlink="http://www.w3.org/1999/xlink" x="0px" y="0px"
	 viewBox="0 0 60 60" style="enable-background:new 0 0 60 60;" xml:space="preserve">
<style type="text/css">
	.st0{fill:#01FFFD;}
	.st1{fill:#01FFFD;fill-opacity:0;}
</style>
<path class="st0" d="M60,60H0V0h60V60z M58.1,1.9H1.9v56.3h56.3V1.9H58.1z"/>
<rect id="bg" class="st1" width="60" height="60"/>
<path class="st0" d="M30,44.3c-7.9,0-14.3-6.4-14.3-14.3c0-7.9,6.4-14.3,14.3-14.3S44.3,22.2,44.3,30C44.3,37.9,37.9,44.3,30,44.3z
	 M30,17.8c-6.8,0-12.3,5.5-12.3,12.3c0,6.8,5.5,12.3,12.3,12.3c6.8,0,12.3-5.5,12.3-12.3C42.3,23.3,36.8,17.8,30,17.8z"/>
</svg>
