<?xml version="1.0" encoding="utf-8"?>
<!-- Generator: Adobe Illustrator 25.4.1, SVG Export Plug-In . SVG Version: 6.00 Build 0)  -->
<svg version="1.1" id="Layer_1" xmlns="http://www.w3.org/2000/svg" xmlns:xlink="http://www.w3.org/1999/xlink" x="0px" y="0px"
	 viewBox="0 0 60 60" style="enable-background:new 0 0 60 60;" xml:space="preserve">
<style type="text/css">
	.st0{fill:#01FFFD;}
	.st1{fill:#00FFFF;}
	.st2{fill:#01FFFD;fill-opacity:0;}
</style>
<g>
	<path class="st0" d="M45.9,33.8v-2h3.7v-9.7h-3.8v-1.9h3.7v-1.9H37.2c0.3,0.6,0.6,1.3,0.8,1.9h5.9v3.9h3.8v5.7h-1.9v-3.8h-1.9v19.3
		H42V33.9h-5.8v1.9H40v11.6h9.6V33.8H45.9z M47.7,45.4h-1.8v-3.8h1.8V45.4z M47.7,39.5h-1.8v-3.7h1.8V39.5z M38.5,22.1
		c0.1,0.7,0.2,1.3,0.2,2H40v5.7h-2.1c-0.2,0.7-0.5,1.3-0.9,1.9h4.9v-9.6H38.5z"/>
	<path class="st0" d="M32,28c0.4-1,0.6-2.1,0.6-3.2c0-1-0.2-2-0.5-2.9v0.2h-1.7v-1.8h1c-0.4-0.7-1-1.4-1.6-1.9h-1.3v5.8h3.7v2h-3.7
		v5.7h0.8c0.7-0.5,1.3-1.2,1.8-1.9h-0.7V28H32z"/>
	<path class="st0" d="M34.1,37.6v2h-3.8v7.7h-9.7v-1.8h7.7V39c1.1-0.3,2.1-0.8,3.1-1.4H34.1z"/>
	<path class="st0" d="M20.7,22.1c1.3,0,2.5,0,3.8,0c0-1.3,0-2.5,0-3.8c0.7,0,1.2,0,1.9,0c0,3.1,0,6.3,0,9.6c-1.2,0-2.5,0-3.8,0
		c0,1.3,0,2.5,0,3.8c-0.7,0-1.2,0-1.9,0C20.7,28.6,20.7,25.4,20.7,22.1z M24.4,26c0-0.7,0-1.3,0-1.8c-0.7,0-1.2,0-1.8,0
		c0,0.7,0,1.2,0,1.8C23.2,26,23.8,26,24.4,26z"/>
	<path class="st0" d="M23.9,39.7c-1.1,0-2.2-0.1-3.2-0.3v2.2c0.7,0,1.2,0.1,1.8,0.1c0,0.7,0.1,1.2,0.1,1.8h2v-1.9h1.8v-2.1
		C25.5,39.6,24.7,39.7,23.9,39.7z"/>
	<path class="st0" d="M34.2,47.3c-0.7,0-1.2,0-1.9,0c0-1.9,0-3.8,0-5.7c1.2,0,2.4,0,3.7,0c0-1.3,0-2.5,0-3.9c0.7,0,1.3,0,1.9,0
		c0,3.2,0,6.3,0,9.6c-0.6,0-1.1,0-1.8,0c0-1.2,0-2.4,0-3.7c-0.7,0-1.3,0-2,0C34.2,44.8,34.2,46.1,34.2,47.3z"/>
	<path class="st0" d="M24.6,29.9c0.6,0,1.1,0,1.8,0c0,0.6,0,1.2,0,1.8c-0.6,0-1.1,0-1.8,0C24.6,31.1,24.6,30.5,24.6,29.9z"/>
	<path class="st1" d="M36.7,24.1c-0.1-1-0.2-1.9-0.4-2.7c-1.5-5.4-6.5-9.4-12.3-9.4c-7.1,0-12.8,5.8-12.8,12.8c0,4.1,2,7.8,5,10.1
		l0,0l-1.1,1.7L8.3,46.8l1.7,1.1l6.6-10.2l1.1-1.7l0,0c0.9,0.5,1.9,0.9,2.9,1.2c0.6,0.2,1.3,0.3,1.9,0.3c0.4,0.1,0.8,0.1,1.3,0.1
		c0.2,0,0.4,0,0.5,0c0.7,0,1.3-0.1,1.9-0.2c0.7-0.1,1.4-0.3,2-0.6c0.7-0.3,1.4-0.6,2-1c0.1,0,0.1-0.1,0.2-0.1
		c0.9-0.5,1.7-1.2,2.4-1.9c1.5-1.5,2.7-3.5,3.3-5.6c0.2-0.7,0.3-1.4,0.4-2.2c0.1-0.4,0.1-0.8,0.1-1.3C36.7,24.6,36.7,24.3,36.7,24.1
		z M34.1,28.2c-0.4,1.3-1.1,2.5-2,3.5c-0.7,0.8-1.5,1.5-2.3,2.1c-0.5,0.3-0.9,0.6-1.5,0.8c-0.6,0.3-1.3,0.5-2,0.7
		c-0.8,0.2-1.6,0.3-2.5,0.3c-1.1,0-2.2-0.2-3.2-0.5c-4.4-1.4-7.6-5.5-7.6-10.3c0-6,4.9-10.8,10.8-10.8c3.5,0,6.7,1.7,8.6,4.3
		c0.7,0.9,1.2,1.9,1.6,3.1c0.4,1.1,0.6,2.2,0.6,3.4C34.7,26,34.5,27.1,34.1,28.2z"/>
	<path class="st0" d="M20.7,18.2c0.6,0,1.1,0,1.8,0c0,0.6,0,1.2,0,1.8c-0.6,0-1.1,0-1.8,0C20.7,19.5,20.7,18.9,20.7,18.2z"/>
</g>
<rect id="bg" class="st2" width="60" height="60"/>
</svg>
