<?xml version="1.0" encoding="utf-8"?>
<!-- Generator: Adobe Illustrator 25.4.1, SVG Export Plug-In . SVG Version: 6.00 Build 0)  -->
<svg version="1.1" id="Layer_1" xmlns="http://www.w3.org/2000/svg" xmlns:xlink="http://www.w3.org/1999/xlink" x="0px" y="0px"
	 viewBox="0 0 60 60" style="enable-background:new 0 0 60 60;" xml:space="preserve">
<style type="text/css">
	.st0{fill:#01FFFD;}
	.st1{display:none;fill:#01FFFD;fill-opacity:0;}
</style>
<g>
	<path class="st0" d="M38.6,13.1c0.1,0,0.1,0,0.2,0.1l3,3l0.7,0.7l1.2,1.2l3,3c0.1,0.1,0.1,0.2,0,0.3l0,0l-2.1,2.1l-3.7,3.7
		l-0.1,0.1l-0.2-0.2l-0.5-0.5l-1.4-1.4l0,0l-0.4-0.5L35,21.6l-1.4-1.4l0,0l-0.5-0.5l-0.6-0.6l0.1-0.1l3.7-3.7l2.1-2.1
		C38.5,13.1,38.6,13.1,38.6,13.1 M47.5,10.5l-4.3,4.3l-3-3c0,0,0,0,0,0c-0.4-0.4-1-0.6-1.6-0.6c-0.6,0-1.1,0.2-1.6,0.6L35,13.8
		l-3.7,3.7l0,0l-1.5,1.5l2,2l-4,4l1.9,1.9l4-4l3.2,3.2l-4,4l1.9,1.9l4-4l0.5,0.5l1.6,1.6l1.6-1.5l3.7-3.7l2.1-2.1c0,0,0,0,0,0
		c0.9-0.9,0.9-2.3,0-3.1l-3-3l4.3-4.3L47.5,10.5L47.5,10.5z"/>
	<path class="st0" d="M19.2,32.4l0.1,0.1l8.1,8.1l-3.8,3.8l-2.1,2.1c0,0-0.1,0.1-0.1,0.1c-0.1,0-0.1,0-0.1-0.1l0,0l-3-3l-1.4-1.4v0
		l-0.5-0.5l-3-3c-0.1-0.1-0.1-0.2,0-0.3l0.1-0.1v0L19.2,32.4 M19.2,29.6L11.8,37c0,0,0,0,0,0c-0.9,0.9-0.9,2.3,0,3.1l3,3l-4.4,4.4
		l1.9,1.9l4.4-4.4l3,3c0,0,0,0,0,0c0.4,0.4,1,0.6,1.6,0.6c0.6,0,1.1-0.2,1.6-0.6l2.1-2.1l5.3-5.3l-9.5-9.5L19.2,29.6L19.2,29.6z"/>
</g>
<rect id="bg" class="st1" width="60" height="60"/>
</svg>
